
<svg width="236" height="27" viewBox="0 0 236 27" fill="none" xmlns="http://www.w3.org/2000/svg">
<path d="M12.063 5.74568C12.063 5.74568 10.841 5.32968 9.15099 5.32968C6.42099 5.32968 4.86099 7.35768 4.86099 11.6997C4.86099 15.9117 6.55099 17.6797 9.28099 17.6797C11.881 17.6797 14.221 15.8597 14.221 15.8597L15.651 18.1997C15.651 18.1997 12.921 21.0337 8.83899 21.0337C3.56099 21.0337 0.518989 17.8617 0.518989 11.8297C0.518989 5.71968 3.95099 2.07968 9.28099 2.07968C12.427 2.07968 15.339 3.30168 15.339 3.30168L15.209 8.24168H12.661L12.063 5.74568ZM23.0868 0.571679V17.9917L25.4268 18.6417V20.7217H17.0808V18.6417L19.1608 17.9917V3.37968L17.0808 2.85968V0.779679L23.0868 0.571679ZM33.476 6.42168C37.688 6.42168 40.028 8.96968 40.028 13.4417C40.028 18.1217 37.298 20.9817 33.086 20.9817C28.848 20.9817 26.456 18.7717 26.456 13.8317C26.456 9.15168 29.238 6.42168 33.476 6.42168ZM33.346 9.54168C31.448 9.54168 30.486 10.5817 30.486 13.7017C30.486 16.5617 31.318 17.8617 33.216 17.8617C35.088 17.8617 35.998 16.6917 35.998 13.5717C35.998 10.9197 35.218 9.54168 33.346 9.54168ZM43.4027 9.54168L41.3227 8.89168V6.81168L47.3027 6.68168V15.6517C47.3027 17.0817 47.7187 17.7317 48.8887 17.7317C50.5787 17.7317 51.8267 16.3277 51.8267 16.3277V9.54168L49.7467 8.89168V6.81168L55.7267 6.68168V17.9917L57.8067 18.5117V20.5397L52.3207 20.7217L52.0607 18.9017C52.0607 18.9017 49.9807 20.9817 47.5107 20.9817C44.9107 20.9817 43.4027 19.2397 43.4027 16.3277V9.54168ZM68.8553 20.7217L68.6213 19.3437C68.2573 19.7077 66.9313 20.9817 64.6953 20.9817C61.0553 20.9817 59.3653 18.3297 59.3653 14.0397C59.3653 9.15168 61.7053 6.42168 66.4633 6.42168C67.0873 6.42168 67.8413 6.55168 68.4133 6.68168V3.37968L66.3333 2.85968V0.779679L72.3133 0.571679V17.9397L74.3933 18.4597V20.5397L68.8553 20.7217ZM68.4133 9.93168C67.9193 9.69768 67.1393 9.54168 66.3853 9.54168C64.1753 9.54168 63.3953 11.2317 63.3953 13.8317C63.3953 16.4577 64.1233 17.8617 65.8913 17.8617C67.5553 17.8617 68.4133 16.3797 68.4133 16.3797V9.93168ZM91.6494 17.7317L93.8594 18.5117V20.7217H85.6694V18.5117L87.2294 17.7317L83.8494 12.7917H81.7954V17.7317L83.3554 18.5117V20.7217H75.8154V18.5117L77.7654 17.7317V5.45968L75.8154 4.67968V2.52168L83.3554 2.39168V4.67968L81.7954 5.45968V9.93168H84.1094L86.9954 5.25168L85.5654 4.67968V2.52168L93.1314 2.39168V4.67968L90.7914 5.40768L86.9694 11.1277L91.6494 17.7317ZM98.5589 14.5597C98.7149 16.6397 99.9109 17.8617 101.705 17.8617C103.863 17.8617 106.073 16.6397 106.073 16.6397L107.191 18.7977C107.191 18.7977 104.591 20.9817 101.263 20.9817C96.7909 20.9817 94.5029 18.3817 94.5029 13.9617C94.5029 9.41168 97.0769 6.42168 101.445 6.42168C105.319 6.42168 107.347 8.81368 107.347 12.5317C107.347 13.5197 107.191 14.4817 107.191 14.4817L98.5589 14.5597ZM101.185 9.54168C99.7289 9.54168 98.8189 10.6077 98.6109 12.1417H103.317C103.317 10.6597 102.693 9.54168 101.185 9.54168ZM113.489 14.5597C113.645 16.6397 114.841 17.8617 116.635 17.8617C118.793 17.8617 121.003 16.6397 121.003 16.6397L122.121 18.7977C122.121 18.7977 119.521 20.9817 116.193 20.9817C111.721 20.9817 109.433 18.3817 109.433 13.9617C109.433 9.41168 112.007 6.42168 116.375 6.42168C120.249 6.42168 122.277 8.81368 122.277 12.5317C122.277 13.5197 122.121 14.4817 122.121 14.4817L113.489 14.5597ZM116.115 9.54168C114.659 9.54168 113.749 10.6077 113.541 12.1417H118.247C118.247 10.6597 117.623 9.54168 116.115 9.54168ZM123.718 8.89168V6.81168L129.256 6.68168L129.49 8.13768C129.49 8.13768 131.258 6.42168 133.338 6.42168C136.952 6.42168 138.746 9.09968 138.746 13.3117C138.746 18.1217 136.458 20.9817 131.908 20.9817C131.154 20.9817 130.374 20.8777 129.698 20.7217V24.0237L132.168 24.6217V26.7017H123.77V24.6217L125.798 24.0237V9.54168L123.718 8.89168ZM129.698 17.6017C130.114 17.7837 130.738 17.9917 131.726 17.9917C133.962 17.9917 134.716 16.4317 134.716 13.7797C134.716 11.1537 134.014 9.54168 132.116 9.54168C130.426 9.54168 129.698 10.9717 129.698 10.9717V17.6017ZM144.744 14.5597C144.9 16.6397 146.096 17.8617 147.89 17.8617C150.048 17.8617 152.258 16.6397 152.258 16.6397L153.376 18.7977C153.376 18.7977 150.776 20.9817 147.448 20.9817C142.976 20.9817 140.688 18.3817 140.688 13.9617C140.688 9.41168 143.262 6.42168 147.63 6.42168C151.504 6.42168 153.532 8.81368 153.532 12.5317C153.532 13.5197 153.376 14.4817 153.376 14.4817L144.744 14.5597ZM147.37 9.54168C145.914 9.54168 145.004 10.6077 144.796 12.1417H149.502C149.502 10.6597 148.878 9.54168 147.37 9.54168ZM160.824 6.68168L161.058 8.47568C161.058 8.47568 162.93 6.42168 164.672 6.42168C166.102 6.42168 167.09 6.88968 167.09 6.88968L166.882 11.8817H164.542L164.152 9.67168C162.644 9.67168 161.344 11.1277 161.344 11.1277V17.9917L163.944 18.6417V20.7217H155.364V18.6417L157.444 17.9917V9.54168L155.364 8.89168V6.81168L160.824 6.68168Z" fill="#253E66"/>
<path d="M190.843 17.7837L192.663 18.5117V20.7217H184.395V18.5117L186.345 17.8097L185.721 15.9117H179.949L179.299 17.7837L181.327 18.5117V20.7217H173.475V18.5117L175.373 17.7837L181.093 2.46968L185.253 2.39168L190.843 17.7837ZM180.859 13.1297H184.863L182.913 6.96768L180.859 13.1297ZM195.264 9.54168L193.184 8.89168V6.81168L199.164 6.68168V15.6517C199.164 17.0817 199.58 17.7317 200.75 17.7317C202.44 17.7317 203.688 16.3277 203.688 16.3277V9.54168L201.608 8.89168V6.81168L207.588 6.68168V17.9917L209.668 18.5117V20.5397L204.182 20.7217L203.922 18.9017C203.922 18.9017 201.842 20.9817 199.372 20.9817C196.772 20.9817 195.264 19.2397 195.264 16.3277V9.54168ZM216.843 20.9817C213.853 20.9817 212.995 18.9017 212.995 15.9117V9.93168H210.577V7.40968L212.995 7.07168V3.48368L216.895 2.78168V7.07168H220.535V9.93168H216.895V15.6517C216.895 17.3157 217.181 17.9917 218.273 17.9917C218.975 17.9917 219.989 17.5757 220.327 17.3937L221.263 19.3697C219.989 20.3057 218.533 20.9817 216.843 20.9817ZM229.441 6.42168C233.653 6.42168 235.993 8.96968 235.993 13.4417C235.993 18.1217 233.263 20.9817 229.051 20.9817C224.813 20.9817 222.421 18.7717 222.421 13.8317C222.421 9.15168 225.203 6.42168 229.441 6.42168ZM229.311 9.54168C227.413 9.54168 226.451 10.5817 226.451 13.7017C226.451 16.5617 227.283 17.8617 229.181 17.8617C231.053 17.8617 231.963 16.6917 231.963 13.5717C231.963 10.9197 231.183 9.54168 229.311 9.54168Z" fill="#D93081"/>
</svg>
