
<svg width="594" height="31" viewBox="0 0 594 31" fill="none" xmlns="http://www.w3.org/2000/svg">
<path d="M2.24397 30.98C1.91397 30.98 1.60597 30.914 1.34197 30.793L1.53997 30.089C1.73797 30.188 1.96897 30.232 2.21097 30.232C2.57397 30.232 2.81597 30.111 3.03597 29.726L3.36597 29.022L0.890974 23.313H1.80397L3.79497 28.043L5.67597 23.313H6.56697L3.97097 29.638C3.57497 30.606 3.02497 30.969 2.24397 30.98ZM10.2227 28.395C10.8937 28.395 11.6637 28.098 12.0157 27.713L12.5217 28.252C12.0267 28.791 11.0257 29.132 10.2337 29.132C8.71567 29.132 7.35167 27.889 7.35167 26.14C7.35167 24.446 8.62767 23.181 10.1567 23.181C11.8727 23.181 12.8517 24.479 12.8517 26.47H8.19867C8.31967 27.581 9.10067 28.395 10.2227 28.395ZM10.1897 23.918C9.17767 23.918 8.36367 24.633 8.20967 25.733H12.0377C11.9277 24.71 11.3227 23.918 10.1897 23.918ZM16.5117 23.181C18.0627 23.181 18.8217 24.16 18.8217 25.535V29H17.9967V28.109C17.5897 28.78 16.7427 29.132 15.9947 29.132C14.7957 29.132 13.9157 28.439 13.9157 27.317C13.9157 26.184 14.9277 25.425 16.1487 25.425C16.7647 25.425 17.4137 25.557 17.9967 25.744V25.535C17.9967 24.765 17.6887 23.885 16.4567 23.885C15.8847 23.885 15.3127 24.138 14.7957 24.402L14.4657 23.731C15.2797 23.324 15.9617 23.181 16.5117 23.181ZM16.1377 28.406C16.8857 28.406 17.7767 28.021 17.9967 27.218V26.349C17.4797 26.206 16.8967 26.118 16.2807 26.118C15.4337 26.118 14.7187 26.602 14.7187 27.284C14.7187 27.988 15.3347 28.406 16.1377 28.406ZM21.4093 24.424C21.7503 23.665 22.5643 23.181 23.6093 23.181V23.918C22.3223 23.918 21.4093 24.71 21.4093 25.821V29H20.5843V23.313H21.4093V24.424ZM26.7635 29.132C25.9715 29.132 25.0915 28.835 24.4095 28.285L24.8385 27.68C25.4875 28.153 26.1365 28.395 26.7635 28.395C27.5115 28.395 28.0175 28.043 28.0175 27.504C28.0175 26.888 27.3575 26.69 26.5875 26.47C25.2125 26.074 24.6845 25.667 24.6845 24.853C24.6845 23.819 25.5425 23.181 26.6755 23.181C27.3795 23.181 28.1055 23.423 28.7105 23.819L28.3145 24.457C27.7425 24.094 27.1815 23.918 26.6755 23.918C26.0375 23.918 25.5095 24.204 25.5095 24.754C25.5095 25.249 25.9275 25.403 26.9835 25.744C27.8965 26.03 28.8425 26.338 28.8425 27.416C28.8425 28.461 27.9405 29.132 26.7635 29.132ZM36.038 29.132C34.443 29.132 33.09 27.768 33.09 26.151C33.09 24.534 34.443 23.181 36.038 23.181C37.633 23.181 38.975 24.534 38.975 26.151C38.975 27.768 37.633 29.132 36.038 29.132ZM36.038 28.395C37.16 28.395 38.106 27.372 38.106 26.151C38.106 24.941 37.16 23.918 36.038 23.918C34.905 23.918 33.959 24.941 33.959 26.151C33.959 27.372 34.905 28.395 36.038 28.395ZM43.0434 23.181C44.2974 23.181 45.1774 24.094 45.1774 25.381V29H44.3524V25.491C44.3524 24.567 43.7694 23.918 42.9334 23.918C41.9764 23.918 41.1734 24.589 41.1734 25.381V29H40.3484V23.313H41.1734V24.226C41.5034 23.621 42.2404 23.181 43.0434 23.181ZM56.2196 29L55.4606 27.284H51.2476L50.4886 29H49.5536L52.8866 21.443H53.8216L57.1546 29H56.2196ZM51.5996 26.47H55.1086L53.3596 22.499L51.5996 26.47ZM60.0569 29L57.4719 21.443H58.4399L60.5299 27.559L62.5319 21.443H63.4889L65.4909 27.559L67.5809 21.443H68.5489L65.9639 29H65.1169L63.0159 22.565L60.9039 29H60.0569ZM72.4435 29.121C71.2005 29.121 70.2215 28.67 69.4625 27.922L70.0015 27.251C70.6395 27.889 71.4205 28.34 72.4765 28.34C73.6425 28.34 74.2365 27.702 74.2365 27.02C74.2365 26.217 73.5215 25.898 72.2015 25.59C70.6835 25.238 69.7265 24.765 69.7265 23.456C69.7265 22.246 70.8045 21.3 72.2565 21.3C73.3785 21.3 74.2145 21.74 74.9075 22.378L74.3795 23.049C73.7525 22.444 73.0045 22.081 72.2125 22.081C71.2775 22.081 70.5955 22.697 70.5955 23.39C70.5955 24.171 71.3435 24.446 72.6305 24.754C74.0715 25.095 75.1055 25.612 75.1055 26.943C75.1055 28.142 74.2035 29.121 72.4435 29.121Z" fill="#222222"/>
<path d="M3.59799 12V4.23L1.84299 5.325L0.957986 3.765L4.04799 1.695H5.81799V12H3.59799ZM7.63357 12V10.2L11.4286 7.26C12.6586 6.285 13.0486 5.61 13.0486 4.89C13.0486 4.035 12.3286 3.525 11.4886 3.525C10.4836 3.525 9.71857 4.035 8.96857 4.89L7.55857 3.525C8.57857 2.235 9.88357 1.515 11.5486 1.515C13.7386 1.515 15.3286 2.865 15.3286 4.8C15.3286 6.18 14.7286 7.245 12.9286 8.55L11.0536 10.005H15.4186V12H7.63357ZM24.2885 6.105V7.89H21.6185V10.62H19.7285V7.89H17.0435V6.105H19.7285V3.375H21.6185V6.105H24.2885Z" fill="#212121"/>
<path d="M103.561 11V31" stroke="#E1EAEF"/>
<path d="M137.579 29L136.82 27.284H132.607L131.848 29H130.913L134.246 21.443H135.181L138.514 29H137.579ZM132.959 26.47H136.468L134.719 22.499L132.959 26.47ZM142.341 29.132C140.746 29.132 139.393 27.768 139.393 26.151C139.393 24.534 140.746 23.181 142.341 23.181C143.111 23.181 143.826 23.5 144.365 24.017L143.793 24.578C143.419 24.171 142.902 23.918 142.341 23.918C141.208 23.918 140.262 24.941 140.262 26.151C140.262 27.372 141.208 28.395 142.341 28.395C142.913 28.395 143.441 28.131 143.826 27.702L144.398 28.263C143.859 28.802 143.133 29.132 142.341 29.132ZM148.16 28.164L148.567 28.769C148.27 29 147.896 29.132 147.511 29.132C146.697 29.132 146.125 28.527 146.125 27.68V24.05H145.234V23.313H146.125V21.751H146.95V23.313H148.347V24.05H146.95V27.68C146.95 28.098 147.236 28.395 147.566 28.395C147.819 28.395 148.039 28.296 148.16 28.164ZM150.141 22.279C149.833 22.279 149.591 22.026 149.591 21.729C149.591 21.443 149.833 21.19 150.141 21.19C150.438 21.19 150.68 21.443 150.68 21.729C150.68 22.026 150.438 22.279 150.141 22.279ZM149.723 29V23.313H150.548V29H149.723ZM154.086 29L151.666 23.313H152.59L154.482 28.032L156.341 23.313H157.265L154.878 29H154.086ZM160.579 28.395C161.25 28.395 162.02 28.098 162.372 27.713L162.878 28.252C162.383 28.791 161.382 29.132 160.59 29.132C159.072 29.132 157.708 27.889 157.708 26.14C157.708 24.446 158.984 23.181 160.513 23.181C162.229 23.181 163.208 24.479 163.208 26.47H158.555C158.676 27.581 159.457 28.395 160.579 28.395ZM160.546 23.918C159.534 23.918 158.72 24.633 158.566 25.733H162.394C162.284 24.71 161.679 23.918 160.546 23.918ZM171.357 29.132C169.267 29.132 167.485 27.339 167.485 25.216C167.485 23.093 169.267 21.311 171.357 21.311C172.402 21.311 173.37 21.751 174.074 22.466L173.491 23.06C172.941 22.477 172.182 22.103 171.357 22.103C169.729 22.103 168.354 23.533 168.354 25.216C168.354 26.91 169.729 28.34 171.357 28.34C172.182 28.34 172.941 27.966 173.491 27.383L174.074 27.977C173.37 28.681 172.402 29.132 171.357 29.132ZM179.229 23.313H180.054V29H179.229V28.087C178.899 28.692 178.162 29.132 177.359 29.132C176.105 29.132 175.225 28.219 175.225 26.932V23.313H176.05V26.822C176.05 27.746 176.633 28.395 177.469 28.395C178.426 28.395 179.229 27.724 179.229 26.932V23.313ZM183.748 29.132C182.956 29.132 182.076 28.835 181.394 28.285L181.823 27.68C182.472 28.153 183.121 28.395 183.748 28.395C184.496 28.395 185.002 28.043 185.002 27.504C185.002 26.888 184.342 26.69 183.572 26.47C182.197 26.074 181.669 25.667 181.669 24.853C181.669 23.819 182.527 23.181 183.66 23.181C184.364 23.181 185.09 23.423 185.695 23.819L185.299 24.457C184.727 24.094 184.166 23.918 183.66 23.918C183.022 23.918 182.494 24.204 182.494 24.754C182.494 25.249 182.912 25.403 183.968 25.744C184.881 26.03 185.827 26.338 185.827 27.416C185.827 28.461 184.925 29.132 183.748 29.132ZM189.689 28.164L190.096 28.769C189.799 29 189.425 29.132 189.04 29.132C188.226 29.132 187.654 28.527 187.654 27.68V24.05H186.763V23.313H187.654V21.751H188.479V23.313H189.876V24.05H188.479V27.68C188.479 28.098 188.765 28.395 189.095 28.395C189.348 28.395 189.568 28.296 189.689 28.164ZM193.903 29.132C192.308 29.132 190.955 27.768 190.955 26.151C190.955 24.534 192.308 23.181 193.903 23.181C195.498 23.181 196.84 24.534 196.84 26.151C196.84 27.768 195.498 29.132 193.903 29.132ZM193.903 28.395C195.025 28.395 195.971 27.372 195.971 26.151C195.971 24.941 195.025 23.918 193.903 23.918C192.77 23.918 191.824 24.941 191.824 26.151C191.824 27.372 192.77 28.395 193.903 28.395ZM204.352 23.181C205.54 23.181 206.376 24.094 206.376 25.381V29H205.551V25.491C205.551 24.567 205.012 23.918 204.242 23.918C203.34 23.918 202.702 24.523 202.702 25.381V29H201.877V25.491C201.877 24.567 201.338 23.918 200.568 23.918C199.666 23.918 199.028 24.523 199.028 25.381V29H198.203V23.313H199.028V24.149C199.314 23.555 199.93 23.181 200.678 23.181C201.536 23.181 202.207 23.654 202.515 24.391C202.746 23.654 203.494 23.181 204.352 23.181ZM210.605 28.395C211.276 28.395 212.046 28.098 212.398 27.713L212.904 28.252C212.409 28.791 211.408 29.132 210.616 29.132C209.098 29.132 207.734 27.889 207.734 26.14C207.734 24.446 209.01 23.181 210.539 23.181C212.255 23.181 213.234 24.479 213.234 26.47H208.581C208.702 27.581 209.483 28.395 210.605 28.395ZM210.572 23.918C209.56 23.918 208.746 24.633 208.592 25.733H212.42C212.31 24.71 211.705 23.918 210.572 23.918ZM215.486 24.424C215.827 23.665 216.641 23.181 217.686 23.181V23.918C216.399 23.918 215.486 24.71 215.486 25.821V29H214.661V23.313H215.486V24.424ZM220.841 29.132C220.049 29.132 219.169 28.835 218.487 28.285L218.916 27.68C219.565 28.153 220.214 28.395 220.841 28.395C221.589 28.395 222.095 28.043 222.095 27.504C222.095 26.888 221.435 26.69 220.665 26.47C219.29 26.074 218.762 25.667 218.762 24.853C218.762 23.819 219.62 23.181 220.753 23.181C221.457 23.181 222.183 23.423 222.788 23.819L222.392 24.457C221.82 24.094 221.259 23.918 220.753 23.918C220.115 23.918 219.587 24.204 219.587 24.754C219.587 25.249 220.005 25.403 221.061 25.744C221.974 26.03 222.92 26.338 222.92 27.416C222.92 28.461 222.018 29.132 220.841 29.132Z" fill="#222222"/>
<path d="M134.789 12.182C133.053 12.182 131.737 11.496 130.925 10.558L132.143 9.186C132.815 9.914 133.725 10.32 134.691 10.32C135.755 10.32 136.371 9.83 136.371 9.144C136.371 8.402 135.797 8.024 134.495 8.038H133.389V6.274L134.495 6.288C135.545 6.288 136.175 5.896 136.175 5.21C136.175 4.51 135.517 4.062 134.565 4.062C133.655 4.062 132.941 4.51 132.297 5.182L131.107 3.922C131.905 2.956 133.053 2.214 134.761 2.214C136.931 2.214 138.289 3.32 138.289 4.846C138.289 5.952 137.533 6.75 136.483 7.058C137.533 7.296 138.499 8.038 138.499 9.312C138.499 10.978 137.029 12.182 134.789 12.182ZM143.993 12.168C141.459 12.168 139.681 10.11 139.681 7.184C139.681 4.272 141.459 2.214 143.993 2.214C146.527 2.214 148.319 4.272 148.319 7.184C148.319 10.11 146.527 12.168 143.993 12.168ZM143.993 10.292C145.295 10.292 146.191 8.99 146.191 7.184C146.191 5.378 145.295 4.09 143.993 4.09C142.705 4.09 141.795 5.378 141.795 7.184C141.795 8.99 142.705 10.292 143.993 10.292ZM153.878 12.168C151.344 12.168 149.566 10.11 149.566 7.184C149.566 4.272 151.344 2.214 153.878 2.214C156.412 2.214 158.204 4.272 158.204 7.184C158.204 10.11 156.412 12.168 153.878 12.168ZM153.878 10.292C155.18 10.292 156.076 8.99 156.076 7.184C156.076 5.378 155.18 4.09 153.878 4.09C152.59 4.09 151.68 5.378 151.68 7.184C151.68 8.99 152.59 10.292 153.878 10.292ZM166.423 6.498V8.164H163.931V10.712H162.167V8.164H159.661V6.498H162.167V3.95H163.931V6.498H166.423Z" fill="#212121"/>
<path d="M250.561 11V31" stroke="#E1EAEF"/>
<path d="M281.037 29.132C279.442 29.132 278.089 27.768 278.089 26.151C278.089 24.534 279.442 23.181 281.037 23.181C282.632 23.181 283.974 24.534 283.974 26.151C283.974 27.768 282.632 29.132 281.037 29.132ZM281.037 28.395C282.159 28.395 283.105 27.372 283.105 26.151C283.105 24.941 282.159 23.918 281.037 23.918C279.904 23.918 278.958 24.941 278.958 26.151C278.958 27.372 279.904 28.395 281.037 28.395ZM286.623 22.532V23.313H288.02V24.05H286.623V29H285.798V24.05H284.907V23.313H285.798V22.532C285.798 21.685 286.37 21.08 287.184 21.08C287.569 21.08 287.943 21.212 288.24 21.443L287.833 22.048C287.712 21.916 287.492 21.817 287.239 21.817C286.909 21.817 286.623 22.114 286.623 22.532ZM295.034 29.121C293.791 29.121 292.812 28.67 292.053 27.922L292.592 27.251C293.23 27.889 294.011 28.34 295.067 28.34C296.233 28.34 296.827 27.702 296.827 27.02C296.827 26.217 296.112 25.898 294.792 25.59C293.274 25.238 292.317 24.765 292.317 23.456C292.317 22.246 293.395 21.3 294.847 21.3C295.969 21.3 296.805 21.74 297.498 22.378L296.97 23.049C296.343 22.444 295.595 22.081 294.803 22.081C293.868 22.081 293.186 22.697 293.186 23.39C293.186 24.171 293.934 24.446 295.221 24.754C296.662 25.095 297.696 25.612 297.696 26.943C297.696 28.142 296.794 29.121 295.034 29.121ZM301.439 23.181C302.99 23.181 303.749 24.16 303.749 25.535V29H302.924V28.109C302.517 28.78 301.67 29.132 300.922 29.132C299.723 29.132 298.843 28.439 298.843 27.317C298.843 26.184 299.855 25.425 301.076 25.425C301.692 25.425 302.341 25.557 302.924 25.744V25.535C302.924 24.765 302.616 23.885 301.384 23.885C300.812 23.885 300.24 24.138 299.723 24.402L299.393 23.731C300.207 23.324 300.889 23.181 301.439 23.181ZM301.065 28.406C301.813 28.406 302.704 28.021 302.924 27.218V26.349C302.407 26.206 301.824 26.118 301.208 26.118C300.361 26.118 299.646 26.602 299.646 27.284C299.646 27.988 300.262 28.406 301.065 28.406ZM307.316 29L304.896 23.313H305.82L307.712 28.032L309.571 23.313H310.495L308.108 29H307.316ZM312.04 22.279C311.732 22.279 311.49 22.026 311.49 21.729C311.49 21.443 311.732 21.19 312.04 21.19C312.337 21.19 312.579 21.443 312.579 21.729C312.579 22.026 312.337 22.279 312.04 22.279ZM311.622 29V23.313H312.447V29H311.622ZM316.81 23.181C318.064 23.181 318.944 24.094 318.944 25.381V29H318.119V25.491C318.119 24.567 317.536 23.918 316.7 23.918C315.743 23.918 314.94 24.589 314.94 25.381V29H314.115V23.313H314.94V24.226C315.27 23.621 316.007 23.181 316.81 23.181ZM325.036 23.313H325.861V28.395C325.861 29.858 324.706 30.892 323.067 30.892C322.143 30.892 321.285 30.573 320.768 30.133L321.131 29.484C321.571 29.902 322.253 30.155 322.957 30.155C324.266 30.155 325.036 29.506 325.036 28.395V27.471C324.596 28.164 323.87 28.582 322.968 28.582C321.439 28.582 320.35 27.46 320.35 25.876C320.35 24.292 321.439 23.181 322.968 23.181C323.87 23.181 324.596 23.599 325.036 24.292V23.313ZM323.122 27.845C324.244 27.845 325.036 27.031 325.036 25.876C325.036 24.732 324.244 23.918 323.122 23.918C322.011 23.918 321.219 24.732 321.219 25.876C321.219 27.031 322.011 27.845 323.122 27.845ZM329.62 29.132C328.828 29.132 327.948 28.835 327.266 28.285L327.695 27.68C328.344 28.153 328.993 28.395 329.62 28.395C330.368 28.395 330.874 28.043 330.874 27.504C330.874 26.888 330.214 26.69 329.444 26.47C328.069 26.074 327.541 25.667 327.541 24.853C327.541 23.819 328.399 23.181 329.532 23.181C330.236 23.181 330.962 23.423 331.567 23.819L331.171 24.457C330.599 24.094 330.038 23.918 329.532 23.918C328.894 23.918 328.366 24.204 328.366 24.754C328.366 25.249 328.784 25.403 329.84 25.744C330.753 26.03 331.699 26.338 331.699 27.416C331.699 28.461 330.797 29.132 329.62 29.132ZM336.452 29V21.443H339.004C341.402 21.443 343.096 23.005 343.096 25.216C343.096 27.427 341.402 29 339.004 29H336.452ZM337.31 28.219H339.004C340.896 28.219 342.227 26.976 342.227 25.216C342.227 23.467 340.896 22.224 339.004 22.224H337.31V28.219ZM347.196 28.395C347.867 28.395 348.637 28.098 348.989 27.713L349.495 28.252C349 28.791 347.999 29.132 347.207 29.132C345.689 29.132 344.325 27.889 344.325 26.14C344.325 24.446 345.601 23.181 347.13 23.181C348.846 23.181 349.825 24.479 349.825 26.47H345.172C345.293 27.581 346.074 28.395 347.196 28.395ZM347.163 23.918C346.151 23.918 345.337 24.633 345.183 25.733H349.011C348.901 24.71 348.296 23.918 347.163 23.918ZM351.175 29V21.311H352V29H351.175ZM354.074 22.279C353.766 22.279 353.524 22.026 353.524 21.729C353.524 21.443 353.766 21.19 354.074 21.19C354.371 21.19 354.613 21.443 354.613 21.729C354.613 22.026 354.371 22.279 354.074 22.279ZM353.656 29V23.313H354.481V29H353.656ZM358.019 29L355.599 23.313H356.523L358.415 28.032L360.274 23.313H361.198L358.811 29H358.019ZM364.513 28.395C365.184 28.395 365.954 28.098 366.306 27.713L366.812 28.252C366.317 28.791 365.316 29.132 364.524 29.132C363.006 29.132 361.642 27.889 361.642 26.14C361.642 24.446 362.918 23.181 364.447 23.181C366.163 23.181 367.142 24.479 367.142 26.47H362.489C362.61 27.581 363.391 28.395 364.513 28.395ZM364.48 23.918C363.468 23.918 362.654 24.633 362.5 25.733H366.328C366.218 24.71 365.613 23.918 364.48 23.918ZM369.394 24.424C369.735 23.665 370.549 23.181 371.594 23.181V23.918C370.307 23.918 369.394 24.71 369.394 25.821V29H368.569V23.313H369.394V24.424ZM375.298 28.395C375.969 28.395 376.739 28.098 377.091 27.713L377.597 28.252C377.102 28.791 376.101 29.132 375.309 29.132C373.791 29.132 372.427 27.889 372.427 26.14C372.427 24.446 373.703 23.181 375.232 23.181C376.948 23.181 377.927 24.479 377.927 26.47H373.274C373.395 27.581 374.176 28.395 375.298 28.395ZM375.265 23.918C374.253 23.918 373.439 24.633 373.285 25.733H377.113C377.003 24.71 376.398 23.918 375.265 23.918ZM383.721 21.311H384.546V29H383.721V27.933C383.292 28.681 382.566 29.132 381.653 29.132C380.157 29.132 379.035 27.9 379.035 26.151C379.035 24.413 380.157 23.181 381.653 23.181C382.566 23.181 383.292 23.632 383.721 24.38V21.311ZM381.807 28.395C382.929 28.395 383.721 27.46 383.721 26.151C383.721 24.842 382.929 23.918 381.807 23.918C380.696 23.918 379.904 24.842 379.904 26.151C379.904 27.46 380.696 28.395 381.807 28.395Z" fill="#222222"/>
<path d="M286.486 8.91C286.486 10.74 285.196 12 282.976 12.165V13.11H281.521V12.12C280.126 11.94 278.881 11.37 277.906 10.47L279.181 8.955C279.886 9.555 280.651 9.99 281.521 10.185V7.695C279.646 7.215 278.356 6.54 278.356 4.725C278.356 3.015 279.616 1.785 281.521 1.545V0.614999H282.976V1.56C284.281 1.695 285.331 2.19 286.201 2.94L285.046 4.53C284.401 4.005 283.681 3.66 282.976 3.495V5.895C285.091 6.375 286.486 7.05 286.486 8.91ZM280.591 4.5C280.591 4.995 280.861 5.28 281.521 5.505V3.465C280.936 3.615 280.591 4.02 280.591 4.5ZM282.976 10.275C283.816 10.17 284.251 9.705 284.251 9.15C284.251 8.58 283.891 8.31 282.976 8.055V10.275ZM289.903 12V4.23L288.148 5.325L287.263 3.765L290.353 1.695H292.123V12H289.903ZM298.574 12.18C295.859 12.18 293.954 9.975 293.954 6.84C293.954 3.72 295.859 1.515 298.574 1.515C301.289 1.515 303.209 3.72 303.209 6.84C303.209 9.975 301.289 12.18 298.574 12.18ZM298.574 10.17C299.969 10.17 300.929 8.775 300.929 6.84C300.929 4.905 299.969 3.525 298.574 3.525C297.194 3.525 296.219 4.905 296.219 6.84C296.219 8.775 297.194 10.17 298.574 10.17ZM309.165 12.18C306.45 12.18 304.545 9.975 304.545 6.84C304.545 3.72 306.45 1.515 309.165 1.515C311.88 1.515 313.8 3.72 313.8 6.84C313.8 9.975 311.88 12.18 309.165 12.18ZM309.165 10.17C310.56 10.17 311.52 8.775 311.52 6.84C311.52 4.905 310.56 3.525 309.165 3.525C307.785 3.525 306.81 4.905 306.81 6.84C306.81 8.775 307.785 10.17 309.165 10.17ZM319.76 12V1.695H321.965L325.16 7.515L328.34 1.695H330.56V12H328.34V5.58L325.16 11.4L321.965 5.58V12H319.76ZM337.103 4.065C338.783 4.065 339.983 5.31 339.983 7.065V12H337.868V7.53C337.868 6.57 337.268 5.91 336.398 5.91C335.483 5.91 334.778 6.57 334.778 7.41L334.763 7.365V12H332.573V4.245H334.763V5.22C335.228 4.515 336.098 4.065 337.103 4.065ZM349.017 6.105V7.89H346.347V10.62H344.457V7.89H341.772V6.105H344.457V3.375H346.347V6.105H349.017Z" fill="#212121"/>
<path d="M412.561 11V31" stroke="#E1EAEF"/>
<path d="M446.579 29L445.82 27.284H441.607L440.848 29H439.913L443.246 21.443H444.181L447.514 29H446.579ZM441.959 26.47H445.468L443.719 22.499L441.959 26.47ZM450.582 29L448.162 23.313H449.086L450.978 28.032L452.837 23.313H453.761L451.374 29H450.582ZM457.075 28.395C457.746 28.395 458.516 28.098 458.868 27.713L459.374 28.252C458.879 28.791 457.878 29.132 457.086 29.132C455.568 29.132 454.204 27.889 454.204 26.14C454.204 24.446 455.48 23.181 457.009 23.181C458.725 23.181 459.704 24.479 459.704 26.47H455.051C455.172 27.581 455.953 28.395 457.075 28.395ZM457.042 23.918C456.03 23.918 455.216 24.633 455.062 25.733H458.89C458.78 24.71 458.175 23.918 457.042 23.918ZM461.956 24.424C462.297 23.665 463.111 23.181 464.156 23.181V23.918C462.869 23.918 461.956 24.71 461.956 25.821V29H461.131V23.313H461.956V24.424ZM467.607 23.181C469.158 23.181 469.917 24.16 469.917 25.535V29H469.092V28.109C468.685 28.78 467.838 29.132 467.09 29.132C465.891 29.132 465.011 28.439 465.011 27.317C465.011 26.184 466.023 25.425 467.244 25.425C467.86 25.425 468.509 25.557 469.092 25.744V25.535C469.092 24.765 468.784 23.885 467.552 23.885C466.98 23.885 466.408 24.138 465.891 24.402L465.561 23.731C466.375 23.324 467.057 23.181 467.607 23.181ZM467.233 28.406C467.981 28.406 468.872 28.021 469.092 27.218V26.349C468.575 26.206 467.992 26.118 467.376 26.118C466.529 26.118 465.814 26.602 465.814 27.284C465.814 27.988 466.43 28.406 467.233 28.406ZM476.025 23.313H476.85V28.395C476.85 29.858 475.695 30.892 474.056 30.892C473.132 30.892 472.274 30.573 471.757 30.133L472.12 29.484C472.56 29.902 473.242 30.155 473.946 30.155C475.255 30.155 476.025 29.506 476.025 28.395V27.471C475.585 28.164 474.859 28.582 473.957 28.582C472.428 28.582 471.339 27.46 471.339 25.876C471.339 24.292 472.428 23.181 473.957 23.181C474.859 23.181 475.585 23.599 476.025 24.292V23.313ZM474.111 27.845C475.233 27.845 476.025 27.031 476.025 25.876C476.025 24.732 475.233 23.918 474.111 23.918C473 23.918 472.208 24.732 472.208 25.876C472.208 27.031 473 27.845 474.111 27.845ZM481.159 28.395C481.83 28.395 482.6 28.098 482.952 27.713L483.458 28.252C482.963 28.791 481.962 29.132 481.17 29.132C479.652 29.132 478.288 27.889 478.288 26.14C478.288 24.446 479.564 23.181 481.093 23.181C482.809 23.181 483.788 24.479 483.788 26.47H479.135C479.256 27.581 480.037 28.395 481.159 28.395ZM481.126 23.918C480.114 23.918 479.3 24.633 479.146 25.733H482.974C482.864 24.71 482.259 23.918 481.126 23.918ZM490.98 29.121C489.737 29.121 488.758 28.67 487.999 27.922L488.538 27.251C489.176 27.889 489.957 28.34 491.013 28.34C492.179 28.34 492.773 27.702 492.773 27.02C492.773 26.217 492.058 25.898 490.738 25.59C489.22 25.238 488.263 24.765 488.263 23.456C488.263 22.246 489.341 21.3 490.793 21.3C491.915 21.3 492.751 21.74 493.444 22.378L492.916 23.049C492.289 22.444 491.541 22.081 490.749 22.081C489.814 22.081 489.132 22.697 489.132 23.39C489.132 24.171 489.88 24.446 491.167 24.754C492.608 25.095 493.642 25.612 493.642 26.943C493.642 28.142 492.74 29.121 490.98 29.121ZM497.385 23.181C498.936 23.181 499.695 24.16 499.695 25.535V29H498.87V28.109C498.463 28.78 497.616 29.132 496.868 29.132C495.669 29.132 494.789 28.439 494.789 27.317C494.789 26.184 495.801 25.425 497.022 25.425C497.638 25.425 498.287 25.557 498.87 25.744V25.535C498.87 24.765 498.562 23.885 497.33 23.885C496.758 23.885 496.186 24.138 495.669 24.402L495.339 23.731C496.153 23.324 496.835 23.181 497.385 23.181ZM497.011 28.406C497.759 28.406 498.65 28.021 498.87 27.218V26.349C498.353 26.206 497.77 26.118 497.154 26.118C496.307 26.118 495.592 26.602 495.592 27.284C495.592 27.988 496.208 28.406 497.011 28.406ZM503.261 29L500.841 23.313H501.765L503.657 28.032L505.516 23.313H506.44L504.053 29H503.261ZM507.986 22.279C507.678 22.279 507.436 22.026 507.436 21.729C507.436 21.443 507.678 21.19 507.986 21.19C508.283 21.19 508.525 21.443 508.525 21.729C508.525 22.026 508.283 22.279 507.986 22.279ZM507.568 29V23.313H508.393V29H507.568ZM512.755 23.181C514.009 23.181 514.889 24.094 514.889 25.381V29H514.064V25.491C514.064 24.567 513.481 23.918 512.645 23.918C511.688 23.918 510.885 24.589 510.885 25.381V29H510.06V23.313H510.885V24.226C511.215 23.621 511.952 23.181 512.755 23.181ZM520.981 23.313H521.806V28.395C521.806 29.858 520.651 30.892 519.012 30.892C518.088 30.892 517.23 30.573 516.713 30.133L517.076 29.484C517.516 29.902 518.198 30.155 518.902 30.155C520.211 30.155 520.981 29.506 520.981 28.395V27.471C520.541 28.164 519.815 28.582 518.913 28.582C517.384 28.582 516.295 27.46 516.295 25.876C516.295 24.292 517.384 23.181 518.913 23.181C519.815 23.181 520.541 23.599 520.981 24.292V23.313ZM519.067 27.845C520.189 27.845 520.981 27.031 520.981 25.876C520.981 24.732 520.189 23.918 519.067 23.918C517.956 23.918 517.164 24.732 517.164 25.876C517.164 27.031 517.956 27.845 519.067 27.845ZM525.565 29.132C524.773 29.132 523.893 28.835 523.211 28.285L523.64 27.68C524.289 28.153 524.938 28.395 525.565 28.395C526.313 28.395 526.819 28.043 526.819 27.504C526.819 26.888 526.159 26.69 525.389 26.47C524.014 26.074 523.486 25.667 523.486 24.853C523.486 23.819 524.344 23.181 525.477 23.181C526.181 23.181 526.907 23.423 527.512 23.819L527.116 24.457C526.544 24.094 525.983 23.918 525.477 23.918C524.839 23.918 524.311 24.204 524.311 24.754C524.311 25.249 524.729 25.403 525.785 25.744C526.698 26.03 527.644 26.338 527.644 27.416C527.644 28.461 526.742 29.132 525.565 29.132ZM534.84 29.132C533.245 29.132 531.892 27.768 531.892 26.151C531.892 24.534 533.245 23.181 534.84 23.181C536.435 23.181 537.777 24.534 537.777 26.151C537.777 27.768 536.435 29.132 534.84 29.132ZM534.84 28.395C535.962 28.395 536.908 27.372 536.908 26.151C536.908 24.941 535.962 23.918 534.84 23.918C533.707 23.918 532.761 24.941 532.761 26.151C532.761 27.372 533.707 28.395 534.84 28.395ZM541.845 23.181C543.099 23.181 543.979 24.094 543.979 25.381V29H543.154V25.491C543.154 24.567 542.571 23.918 541.735 23.918C540.778 23.918 539.975 24.589 539.975 25.381V29H539.15V23.313H539.975V24.226C540.305 23.621 541.042 23.181 541.845 23.181ZM551.039 29V22.257H548.498V21.443H554.438V22.257H551.897V29H551.039ZM558.408 29.132C556.813 29.132 555.46 27.768 555.46 26.151C555.46 24.534 556.813 23.181 558.408 23.181C560.003 23.181 561.345 24.534 561.345 26.151C561.345 27.768 560.003 29.132 558.408 29.132ZM558.408 28.395C559.53 28.395 560.476 27.372 560.476 26.151C560.476 24.941 559.53 23.918 558.408 23.918C557.275 23.918 556.329 24.941 556.329 26.151C556.329 27.372 557.275 28.395 558.408 28.395ZM565.205 28.164L565.612 28.769C565.315 29 564.941 29.132 564.556 29.132C563.742 29.132 563.17 28.527 563.17 27.68V24.05H562.279V23.313H563.17V21.751H563.995V23.313H565.392V24.05H563.995V27.68C563.995 28.098 564.281 28.395 564.611 28.395C564.864 28.395 565.084 28.296 565.205 28.164ZM569.089 23.181C570.64 23.181 571.399 24.16 571.399 25.535V29H570.574V28.109C570.167 28.78 569.32 29.132 568.572 29.132C567.373 29.132 566.493 28.439 566.493 27.317C566.493 26.184 567.505 25.425 568.726 25.425C569.342 25.425 569.991 25.557 570.574 25.744V25.535C570.574 24.765 570.266 23.885 569.034 23.885C568.462 23.885 567.89 24.138 567.373 24.402L567.043 23.731C567.857 23.324 568.539 23.181 569.089 23.181ZM568.715 28.406C569.463 28.406 570.354 28.021 570.574 27.218V26.349C570.057 26.206 569.474 26.118 568.858 26.118C568.011 26.118 567.296 26.602 567.296 27.284C567.296 27.988 567.912 28.406 568.715 28.406ZM573.084 29V21.311H573.909V29H573.084ZM578.965 29V21.443H582.43C583.651 21.443 584.509 22.224 584.509 23.324C584.509 24.127 584.113 24.589 583.431 24.985C584.3 25.425 584.806 26.107 584.806 26.932C584.806 28.142 583.871 29 582.562 29H578.965ZM579.823 24.644H582.21C583.046 24.644 583.64 24.138 583.64 23.434C583.64 22.73 583.046 22.224 582.21 22.224H579.823V24.644ZM579.823 28.219H582.342C583.277 28.219 583.937 27.636 583.937 26.822C583.937 26.008 583.277 25.425 582.342 25.425H579.823V28.219ZM586.672 22.279C586.364 22.279 586.122 22.026 586.122 21.729C586.122 21.443 586.364 21.19 586.672 21.19C586.969 21.19 587.211 21.443 587.211 21.729C587.211 22.026 586.969 22.279 586.672 22.279ZM586.254 29V23.313H587.079V29H586.254ZM588.736 29V21.311H589.561V29H588.736ZM591.228 29V21.311H592.053V29H591.228Z" fill="#222222"/>
<path d="M440.177 12V10.32L443.719 7.576C444.867 6.666 445.231 6.036 445.231 5.364C445.231 4.566 444.559 4.09 443.775 4.09C442.837 4.09 442.123 4.566 441.423 5.364L440.107 4.09C441.059 2.886 442.277 2.214 443.831 2.214C445.875 2.214 447.359 3.474 447.359 5.28C447.359 6.568 446.799 7.562 445.119 8.78L443.369 10.138H447.443V12H440.177ZM453.062 12.168C450.528 12.168 448.75 10.11 448.75 7.184C448.75 4.272 450.528 2.214 453.062 2.214C455.596 2.214 457.388 4.272 457.388 7.184C457.388 10.11 455.596 12.168 453.062 12.168ZM453.062 10.292C454.364 10.292 455.26 8.99 455.26 7.184C455.26 5.378 454.364 4.09 453.062 4.09C451.774 4.09 450.864 5.378 450.864 7.184C450.864 8.99 451.774 10.292 453.062 10.292ZM460.916 7.212C459.488 7.212 458.522 6.134 458.522 4.762C458.522 3.376 459.488 2.284 460.93 2.284C462.386 2.284 463.324 3.39 463.324 4.748C463.324 6.134 462.344 7.212 460.916 7.212ZM459.782 12L466.474 2.382H467.958L461.266 12H459.782ZM460.93 6.008C461.518 6.008 461.952 5.518 461.952 4.748C461.952 4.006 461.518 3.502 460.916 3.502C460.328 3.502 459.908 3.992 459.908 4.748C459.908 5.504 460.356 6.008 460.93 6.008ZM466.796 12.154C465.354 12.154 464.388 11.062 464.388 9.69C464.388 8.318 465.368 7.226 466.796 7.226C468.238 7.226 469.19 8.332 469.19 9.69C469.19 11.076 468.196 12.154 466.796 12.154ZM466.796 10.936C467.398 10.936 467.818 10.446 467.818 9.69C467.818 8.934 467.37 8.43 466.796 8.43C466.18 8.43 465.76 8.92 465.76 9.69C465.76 10.432 466.194 10.936 466.796 10.936Z" fill="#212121"/>
</svg>
