
<svg width="683" height="203" viewBox="0 0 683 203" fill="none" xmlns="http://www.w3.org/2000/svg">
<mask id="mask0_7361_1499" style="mask-type:luminance" maskUnits="userSpaceOnUse" x="0" y="0" width="683" height="203">
<path d="M683 0.924805H0V203H683V0.924805Z" fill="white"/>
</mask>
<g mask="url(#mask0_7361_1499)">
<mask id="mask1_7361_1499" style="mask-type:luminance" maskUnits="userSpaceOnUse" x="-14" y="0" width="717" height="104">
<path d="M702.576 0.924805H-14V104H702.576V0.924805Z" fill="white"/>
</mask>
<g mask="url(#mask1_7361_1499)">
<path d="M-14 104C-11.8 85.3608 4.735 70.8768 24.808 70.8768C27.2029 70.8792 29.5929 71.0907 31.951 71.5088C35.9017 67.5329 40.658 64.4491 45.9 62.4648C45.6305 60.6858 45.4941 58.8891 45.492 57.0898C45.493 36.4528 62.985 19.7248 84.56 19.7248C90.8514 19.6808 97.0625 21.1386 102.677 23.9772C108.292 26.8158 113.148 30.9533 116.843 36.0458C121.368 34.365 126.158 33.5062 130.985 33.5098C137.571 33.459 144.066 35.0583 149.875 38.1618C155.685 41.2652 160.625 45.774 164.245 51.2768C166.262 51.9287 168.224 52.7417 170.111 53.7078C174.768 46.3209 181.779 40.7194 190.011 37.8078C193.268 32.853 197.583 28.6818 202.645 25.5941C207.707 22.5064 213.391 20.579 219.287 19.9507C225.183 19.3223 231.145 20.0086 236.744 21.9601C242.344 23.9116 247.441 27.0798 251.669 31.2368C255.211 30.2549 258.87 29.7574 262.546 29.7578C268.481 29.7215 274.349 31.0187 279.715 33.5534C285.082 36.0882 289.811 39.7959 293.553 44.4028C300.299 39.7208 308.32 37.2239 316.531 37.2498C319.61 37.2498 322.679 37.5991 325.679 38.2908C329.429 34.0641 334.038 30.6866 339.198 28.3841C344.358 26.0815 349.95 24.9069 355.6 24.9388C372.511 24.9388 386.911 35.2188 392.347 49.6008C401.964 42.1153 413.813 38.0722 426 38.1188C448.514 38.1188 467.745 51.5078 475.5 70.4128C477.213 58.4798 487.888 49.2788 500.834 49.2788C503.036 49.2863 505.229 49.5664 507.363 50.1128C507.354 49.8348 507.319 49.5618 507.319 49.2788C507.319 35.5018 518.997 24.3308 533.401 24.3308C537.188 24.3091 540.936 25.0996 544.392 26.6488C547.848 28.198 550.932 30.4701 553.436 33.3118C553.969 33.0518 554.508 32.8051 555.051 32.5718C554.956 31.6352 554.908 30.6943 554.907 29.7528C554.906 13.8348 568.4 0.924805 585.047 0.924805C598.707 0.924805 610.238 9.6248 613.937 21.5358C617.676 19.9323 621.702 19.1062 625.77 19.1078C640.548 19.1078 652.719 29.6838 654.529 43.3458C655.235 43.2998 655.945 43.2688 656.664 43.2688C673.727 43.2688 687.557 56.4978 687.557 72.8178C687.558 75.3711 687.214 77.9129 686.533 80.3738C691.124 81.771 695.152 84.591 698.036 88.4268C700.92 92.2625 702.51 96.9154 702.577 101.714C702.577 102.477 702.537 103.24 702.457 104H-14Z" fill="white" stroke="#CDDCE6" stroke-opacity="0.29"/>
</g>
<path d="M-12.17 98.28C-11.8686 97.7654 -11.4429 97.3346 -10.9319 97.0271C-10.4208 96.7197 -9.84085 96.5453 -9.245 96.52L701.035 96.5C701.413 96.7233 701.699 97.0749 701.84 97.491C702.034 98.1317 702.145 98.7949 702.169 99.464V203H-14L-13.575 103.693C-13.575 103.693 -13.257 100.074 -12.17 98.28Z" fill="white"/>
</g>
</svg>
