<svg width="53" height="24" viewBox="0 0 53 24" fill="none" xmlns="http://www.w3.org/2000/svg">
<path d="M9.2 14.98H10.66V19H0.8V17.76L2.66 17.28L2.36 17.76V6.26L2.66 6.74L0.8 6.3V5.06L6.54 4.96V6.2L4.54 6.74L4.82 6.26V17.62L4.42 17.22H9.12L8.76 17.62L9.2 14.98ZM16.8375 8.14C18.3842 8.14 19.5842 8.60667 20.4375 9.54C21.3042 10.46 21.7375 11.7733 21.7375 13.48C21.7375 14.6667 21.5242 15.6867 21.0975 16.54C20.6842 17.3933 20.0842 18.0533 19.2975 18.52C18.5242 18.9867 17.5908 19.22 16.4975 19.22C14.9642 19.22 13.7708 18.76 12.9175 17.84C12.0775 16.92 11.6575 15.6 11.6575 13.88C11.6575 12.6933 11.8642 11.6733 12.2775 10.82C12.6908 9.96667 13.2842 9.30667 14.0575 8.84C14.8308 8.37333 15.7575 8.14 16.8375 8.14ZM16.7175 9.86C15.8775 9.86 15.2375 10.1867 14.7975 10.84C14.3708 11.4933 14.1575 12.4667 14.1575 13.76C14.1575 15.0533 14.3642 16 14.7775 16.6C15.1908 17.2 15.8042 17.5 16.6175 17.5C17.2042 17.5 17.6908 17.3533 18.0775 17.06C18.4642 16.7533 18.7575 16.3133 18.9575 15.74C19.1575 15.1533 19.2575 14.44 19.2575 13.6C19.2575 12.3467 19.0375 11.4133 18.5975 10.8C18.1708 10.1733 17.5442 9.86 16.7175 9.86ZM27.6809 23.82C26.0543 23.82 24.8409 23.5933 24.0409 23.14C23.2409 22.7 22.8409 22.0533 22.8409 21.2C22.8409 20.56 23.0609 20.0067 23.5009 19.54C23.9409 19.0867 24.5876 18.7067 25.4409 18.4L25.4209 18.88C24.9409 18.8533 24.5543 18.74 24.2609 18.54C23.9809 18.3267 23.8409 18.0467 23.8409 17.7C23.8409 17.5933 23.8543 17.48 23.8809 17.36C23.9209 17.2267 23.9876 17.06 24.0809 16.86C24.1876 16.6467 24.3209 16.3867 24.4809 16.08C24.6543 15.76 24.8809 15.36 25.1609 14.88L25.1809 15.28C24.5543 14.9733 24.0743 14.5467 23.7409 14C23.4076 13.44 23.2409 12.7867 23.2409 12.04C23.2409 10.8267 23.6476 9.87333 24.4609 9.18C25.2876 8.48667 26.4276 8.14 27.8809 8.14C28.9076 8.14 29.7809 8.31333 30.5009 8.66L29.9209 8.56L33.2009 8.42L33.2209 9.78L31.5409 10.1L31.7009 9.82C31.9276 10.06 32.1009 10.3533 32.2209 10.7C32.3409 11.0333 32.4009 11.4267 32.4009 11.88C32.4009 13.0933 31.9809 14.0533 31.1409 14.76C30.3009 15.4533 29.1809 15.8 27.7809 15.8C27.0609 15.8 26.3809 15.6933 25.7409 15.48L26.2009 15.24L25.8009 17.54L25.4009 17.34H29.3609C30.6809 17.34 31.6809 17.6 32.3609 18.12C33.0543 18.6267 33.4009 19.3667 33.4009 20.34C33.4009 21.46 32.9209 22.32 31.9609 22.92C31.0143 23.52 29.5876 23.82 27.6809 23.82ZM27.8809 22.08C29.0009 22.08 29.8143 21.9533 30.3209 21.7C30.8409 21.4467 31.1009 21.06 31.1009 20.54C31.1009 20.0733 30.9209 19.72 30.5609 19.48C30.2009 19.2533 29.6743 19.14 28.9809 19.14H25.6009L26.1809 19C25.3543 19.5333 24.9409 20.1133 24.9409 20.74C24.9409 21.1933 25.1743 21.5267 25.6409 21.74C26.1209 21.9667 26.8676 22.08 27.8809 22.08ZM27.7609 14.16C28.4809 14.16 29.0343 13.9733 29.4209 13.6C29.8209 13.2133 30.0209 12.6533 30.0209 11.92C30.0209 11.1867 29.8343 10.6467 29.4609 10.3C29.1009 9.94 28.5676 9.76 27.8609 9.76C27.1409 9.76 26.5943 9.94667 26.2209 10.32C25.8476 10.6933 25.6609 11.24 25.6609 11.96C25.6609 12.68 25.8343 13.2267 26.1809 13.6C26.5409 13.9733 27.0676 14.16 27.7609 14.16ZM38.1319 17.56L37.9319 17.34L39.5319 17.76V19H34.3119V17.76L35.9119 17.34L35.7319 17.56V9.88L35.8919 10.06L34.3119 9.66V8.42L38.1319 8.28V17.56ZM36.8319 6.52C36.3919 6.52 36.0385 6.39333 35.7719 6.14C35.5052 5.88667 35.3719 5.53333 35.3719 5.08C35.3719 4.58667 35.5119 4.22 35.7919 3.98C36.0719 3.72667 36.4252 3.6 36.8519 3.6C37.2652 3.6 37.6052 3.72 37.8719 3.96C38.1519 4.2 38.2919 4.56667 38.2919 5.06C38.2919 5.54 38.1519 5.90667 37.8719 6.16C37.5919 6.4 37.2452 6.52 36.8319 6.52ZM40.5228 19V17.76L42.2428 17.3L41.9428 17.66V9.72L42.2428 10.12L40.5228 9.66V8.42L43.8028 8.26L44.1228 10.2L43.8028 10.08C44.4561 9.41333 45.1428 8.92667 45.8628 8.62C46.5828 8.3 47.2695 8.14 47.9228 8.14C48.8161 8.14 49.5561 8.42 50.1428 8.98C50.7428 9.54 51.0361 10.3867 51.0228 11.52V17.66L50.7828 17.3L52.4428 17.76V19H47.3228V17.76L48.9228 17.34L48.6228 17.72V12.04C48.6228 11.3333 48.4628 10.8133 48.1428 10.48C47.8361 10.1467 47.4228 9.98 46.9028 9.98C46.5028 9.98 46.0628 10.0933 45.5828 10.32C45.1028 10.5333 44.6295 10.8667 44.1628 11.32L44.3428 10.94V17.72L44.1028 17.34L45.6428 17.76V19H40.5228Z" fill="#253E66"/>
</svg>
