
<svg width="173" height="55" viewBox="0 0 173 55" fill="none" xmlns="http://www.w3.org/2000/svg">
<path d="M172.244 41.0889H0V41.9836H172.244V41.0889Z" fill="#263E66"/>
<path d="M24.1647 11.4727H20.6658V31.6501H24.1647V11.4727Z" fill="#4698D3"/>
<mask id="mask0_5323_26841" style="mask-type:luminance" maskUnits="userSpaceOnUse" x="0" y="0" width="172" height="38">
<path d="M171.837 0H0V37.5075H171.837V0Z" fill="white"/>
</mask>
<g mask="url(#mask0_5323_26841)">
<path d="M34.6602 17.1666C32.7744 17.1 30.9386 17.7807 29.5521 19.0606C28.1656 20.3405 27.3404 22.1161 27.2562 24.0011V24.5706C27.2111 25.5549 27.3718 26.5377 27.728 27.4564C28.0841 28.3751 28.6279 29.2095 29.3246 29.9062C30.0213 30.6029 30.8557 31.1467 31.7744 31.5028C32.6931 31.859 33.6759 32.0197 34.6602 31.9746C35.6441 32.0191 36.6265 31.8579 37.5447 31.5015C38.4629 31.1451 39.2967 30.6012 39.9929 29.9045C40.6892 29.2079 41.2326 28.3737 41.5885 27.4554C41.9444 26.537 42.1049 25.5545 42.0599 24.5706C42.0976 23.629 41.9481 22.6893 41.6199 21.8059C41.2918 20.9225 40.7916 20.113 40.1484 19.4243C39.5051 18.7356 38.7316 18.1815 37.8726 17.7939C37.0136 17.4063 36.0863 17.1931 35.1443 17.1666C35.0692 17.1264 34.9853 17.1055 34.9001 17.1055C34.8149 17.1055 34.731 17.1264 34.6559 17.1666M34.6559 28.72C32.0528 28.72 30.8318 26.6863 30.8318 24.5706C30.8318 22.4548 32.1284 20.3402 34.6559 20.3402C35.1814 20.3554 35.6985 20.4756 36.1769 20.6936C36.6553 20.9116 37.0853 21.2231 37.4416 21.6097C37.7979 21.9963 38.0733 22.4502 38.2516 22.9448C38.4299 23.4393 38.5076 23.9645 38.48 24.4895V24.5706C38.537 25.1018 38.4798 25.6391 38.3123 26.1464C38.1448 26.6538 37.8708 27.1195 37.5087 27.5123C37.1467 27.9052 36.7048 28.2162 36.2128 28.4245C35.7208 28.6327 35.19 28.7335 34.6559 28.72Z" fill="#D92F80"/>
<path d="M55.8966 24.6506C55.9319 25.1559 55.8638 25.6631 55.6965 26.1413C55.5293 26.6195 55.2663 27.0585 54.9237 27.4316C54.5811 27.8048 54.1661 28.1042 53.7039 28.3116C53.2417 28.519 52.7421 28.63 52.2356 28.6379C50.0388 28.6379 48.8189 27.0105 48.8189 24.8137C48.8189 24.8137 48.982 17.9792 48.982 17.4097C48.9738 15.017 48.0196 12.7246 46.3277 11.0327C44.6358 9.34076 42.3434 8.3866 39.9507 8.37834C39.5423 8.36482 39.1337 8.39197 38.7307 8.45938L38.4865 7.97096C37.1932 5.32172 35.1098 3.13902 32.5236 1.72391C29.9374 0.308796 26.9758 -0.269004 24.0473 0.0702018C21.1189 0.409407 18.3678 1.6489 16.1735 3.61774C13.9793 5.58657 12.45 8.18773 11.7965 11.0625C11.4724 11.0625 11.0639 10.9814 10.7387 10.9814C3.41567 10.9814 -0.00108251 16.3518 0.0799599 21.6401C0.0799599 26.9284 3.17146 32.0546 10.7387 32.0546C12.1514 32.1011 13.5588 31.858 14.8741 31.3403C16.1894 30.8226 17.3849 30.0411 18.3869 29.0441L15.7838 26.4411C14.424 27.7385 12.6192 28.4661 10.7397 28.4747C5.7767 28.4747 3.82412 24.9758 3.82412 21.6401C3.82412 18.3044 5.85774 14.6435 10.7397 14.6435H11.4724C12.8755 14.7545 14.2105 15.2944 15.2965 16.1897C15.1352 15.5239 15.0532 14.8413 15.0523 14.1561C15.0484 13.4436 15.1304 12.7332 15.2965 12.0404C15.7425 9.90146 16.8381 7.95247 18.4336 6.45978C20.0291 4.96709 22.0467 4.00354 24.2105 3.70084C26.3744 3.39814 28.5789 3.77105 30.5228 4.76861C32.4666 5.76618 34.055 7.3397 35.0708 9.27413L35.315 9.76254C35.8086 10.7609 36.1371 11.8327 36.2875 12.9362C36.2875 13.0993 36.3686 13.3425 36.3686 13.5056C36.4126 13.4614 36.4699 13.433 36.5318 13.4246C37.4624 12.6328 38.6456 12.2001 39.8675 12.2046H39.9485C41.2244 12.2092 42.4588 12.6586 43.4391 13.4753C44.4193 14.2921 45.0841 15.4251 45.3189 16.6792V25.1411C45.3189 29.5347 47.841 32.1378 51.1767 32.1378C52.0819 32.1514 52.9793 31.9694 53.8077 31.6043C54.6361 31.2391 55.3759 30.6994 55.9765 30.0221L56.2207 31.9746H59.3944V17.4108H55.8966V24.6506Z" fill="#4698D3"/>
<path d="M74.4466 11.4727V19.3608C73.633 17.8999 71.2741 17.0916 69.8078 17.0916C65.6584 17.0916 62.568 19.6136 62.568 24.4956C62.568 29.3776 65.7416 31.8953 69.891 31.8953C70.7836 31.9488 71.6746 31.7665 72.4744 31.3667C73.2743 30.9669 73.9548 30.3636 74.4477 29.6175L74.6919 31.5701H77.9466V11.4727H74.4466ZM70.1319 28.7217C69.0707 28.7094 68.0551 28.2879 67.2971 27.545C66.5391 26.8021 66.0972 25.7952 66.0636 24.7344V24.4902C65.9994 23.4546 66.3489 22.4359 67.0354 21.6579C67.7218 20.8799 68.689 20.4062 69.7246 20.3409H70.0487C71.1478 20.3454 72.2006 20.784 72.9778 21.5612C73.7549 22.3384 74.1936 23.3911 74.1981 24.4902C74.2202 25.0379 74.1314 25.5844 73.937 26.0969C73.7426 26.6094 73.4467 27.0774 73.0669 27.4726C72.6871 27.8678 72.2313 28.1822 71.727 28.3969C71.2226 28.6115 70.6801 28.722 70.1319 28.7217Z" fill="#4698D3"/>
<path d="M80.1423 11.5527H84.2917V19.8515L92.0209 11.6392H97.3914L89.1791 19.8515L97.7976 31.6513H92.4272L86.3253 22.8641L84.2917 24.8977V31.5691H80.1423V11.5527Z" fill="#253E66"/>
<path d="M109.513 17.0862C110.56 17.5413 111.441 18.3085 112.035 19.283C112.698 20.1861 113.092 21.2575 113.174 22.3745C113.282 23.347 113.31 24.3269 113.255 25.3039H102.596C102.559 25.9213 102.681 26.5381 102.952 27.0941C103.223 27.6502 103.633 28.1268 104.143 28.4775C104.78 28.8635 105.514 29.0609 106.258 29.047C106.864 29.1009 107.471 28.9654 107.995 28.6594C108.52 28.3533 108.937 27.8918 109.188 27.3386H113.172C113.019 28.3793 112.5 29.3313 111.708 30.0238C110.985 30.7491 110.121 31.3183 109.169 31.6962C108.218 32.0741 107.199 32.2526 106.175 32.2206C104.29 32.2119 102.46 31.5826 100.968 30.4301C99.4218 29.2101 98.6902 27.2565 98.6902 24.487C98.6902 21.8839 99.3386 19.9302 100.724 18.6292C101.419 17.9457 102.247 17.4124 103.157 17.0626C104.066 16.7127 105.038 16.5538 106.012 16.5956C107.201 16.4653 108.403 16.6331 109.511 17.084M103.734 20.4197C103.158 21.0536 102.789 21.8483 102.676 22.6976H109.348C109.337 22.2537 109.238 21.8163 109.056 21.4111C108.875 21.0059 108.614 20.641 108.29 20.3376C107.656 19.7972 106.845 19.5078 106.012 19.524C105.17 19.5381 104.361 19.8569 103.734 20.4197Z" fill="#253E66"/>
<path d="M125.054 17.0858C126.101 17.5409 126.981 18.3081 127.576 19.2825C128.238 20.1857 128.633 21.257 128.715 22.374C128.823 23.3466 128.85 24.3264 128.796 25.3035H118.057C118.019 25.9209 118.142 26.5376 118.413 27.0937C118.684 27.6498 119.094 28.1264 119.603 28.4771C120.241 28.863 120.974 29.0605 121.719 29.0465C122.324 29.1004 122.931 28.965 123.456 28.6589C123.981 28.3529 124.398 27.8913 124.649 27.3382H128.635C128.482 28.3789 127.963 29.3309 127.171 30.0234C126.436 30.7567 125.557 31.3303 124.591 31.7083C123.624 32.0863 122.589 32.2606 121.552 32.2202C119.666 32.2114 117.836 31.5822 116.344 30.4297C114.88 29.2097 114.067 27.256 114.067 24.4865C114.067 21.8835 114.715 19.9298 116.1 18.6288C116.795 17.9452 117.623 17.4119 118.533 17.062C119.443 16.7122 120.415 16.5533 121.389 16.5952C122.631 16.4189 123.897 16.5878 125.05 17.0836M119.192 20.4193C118.647 21.0735 118.282 21.8587 118.134 22.6971H124.805C124.795 22.2532 124.696 21.8159 124.514 21.4107C124.332 21.0055 124.072 20.6405 123.747 20.3372C123.113 19.7968 122.303 19.5073 121.47 19.5235C120.627 19.5376 119.818 19.8564 119.192 20.4193Z" fill="#253E66"/>
<path d="M143.279 18.3882C144.579 19.9596 145.221 21.9732 145.069 24.0072C145.069 26.6102 144.5 28.6449 143.279 29.9503C142.721 30.5891 142.034 31.1012 141.262 31.452C140.49 31.8028 139.652 31.9842 138.804 31.9839C137.754 32.0261 136.722 31.7107 135.875 31.0892C135.383 30.6784 134.97 30.1824 134.655 29.625V37.3543H130.831V16.8441H134.574V19.0409C134.936 18.471 135.372 17.9511 135.87 17.4946C136.752 16.813 137.848 16.4682 138.962 16.5221C139.771 16.519 140.572 16.6837 141.314 17.0058C142.057 17.3279 142.724 17.8005 143.274 18.3936M140.345 21.2409C140.083 20.8156 139.709 20.47 139.264 20.2415C138.82 20.0129 138.322 19.9102 137.823 19.9442C137.188 19.9052 136.559 20.0749 136.03 20.4275C135.501 20.7801 135.102 21.2961 134.893 21.8968C134.6 22.7607 134.462 23.67 134.487 24.582C134.426 25.2571 134.519 25.9371 134.759 26.5711C134.998 27.2052 135.378 27.7767 135.87 28.243C136.426 28.6728 137.123 28.8763 137.823 28.8124C138.313 28.8437 138.802 28.7479 139.244 28.5341C139.686 28.3204 140.065 27.996 140.345 27.5925C140.866 26.6159 141.138 25.5262 141.138 24.4194C141.138 23.3126 140.866 22.2229 140.345 21.2463V21.2409Z" fill="#253E66"/>
<path d="M157.517 17.0853C158.564 17.5404 159.445 18.3076 160.039 19.2821C160.702 20.1852 161.096 21.2566 161.178 22.3736C161.259 23.3461 161.341 24.3262 161.341 25.303H150.602C150.564 25.9204 150.686 26.5371 150.957 27.0932C151.228 27.6493 151.638 28.1259 152.148 28.4766C152.785 28.8626 153.519 29.06 154.264 29.0461C154.868 29.0958 155.473 28.9586 155.997 28.653C156.521 28.3475 156.939 27.8883 157.193 27.3377H161.18C161.027 28.3784 160.508 29.3304 159.716 30.0229C158.993 30.7482 158.13 31.3174 157.178 31.6953C156.226 32.0732 155.207 32.2516 154.184 32.2197C152.298 32.211 150.468 31.5817 148.976 30.4292C147.43 29.2092 146.699 27.2556 146.699 24.4861C146.699 21.883 147.347 19.9293 148.732 18.6283C149.427 17.9448 150.255 17.4115 151.165 17.0616C152.075 16.7118 153.047 16.5529 154.021 16.5947C155.21 16.4295 156.421 16.5986 157.519 17.0831M151.743 20.4188C151.166 21.0527 150.797 21.8474 150.685 22.6967H157.356C157.346 22.2527 157.246 21.8154 157.065 21.4102C156.883 21.005 156.623 20.6401 156.298 20.3367C155.664 19.7963 154.854 19.5068 154.021 19.523C153.175 19.5224 152.361 19.8432 151.743 20.4188Z" fill="#253E66"/>
<path d="M171.594 16.5201H171.918V20.5074C171.699 20.5257 171.478 20.4981 171.27 20.4263H170.777C170.155 20.3511 169.525 20.4569 168.962 20.7313C168.399 21.0056 167.927 21.4366 167.603 21.9726C167.277 22.8017 167.112 23.6849 167.115 24.5757V31.648H163.213V16.8443H166.874V19.4473C167.269 18.6859 167.792 17.998 168.42 17.4137C169.218 16.7591 170.238 16.4385 171.267 16.519L171.594 16.5201Z" fill="#253E66"/>
</g>
<path d="M2.52313 52.8044H0.732635V45.4004H2.52313V52.8044Z" fill="#253E66"/>
<path d="M5.04515 47.3522L5.12619 48.0005C5.30848 47.766 5.54348 47.5777 5.81214 47.451C6.0808 47.3242 6.37555 47.2626 6.67248 47.2711C6.91068 47.2581 7.14899 47.2947 7.37224 47.3788C7.59549 47.4629 7.79877 47.5926 7.96916 47.7596C8.25788 48.222 8.39955 48.7612 8.37545 49.3058V52.8036H6.67248V49.3048C6.68026 49.1024 6.62309 48.9028 6.50931 48.7353C6.42827 48.5721 6.18514 48.5721 5.93986 48.5721C5.79314 48.5713 5.64867 48.6082 5.52035 48.6794C5.39204 48.7505 5.28421 48.8535 5.20723 48.9784V52.8901H3.41782V47.3576L5.04515 47.3522Z" fill="#253E66"/>
<path d="M12.0418 51.2591C12.0418 51.0959 11.9608 51.0149 11.7976 50.9349C11.5131 50.8098 11.2116 50.7275 10.9029 50.6907C10.5289 50.6195 10.1706 50.4819 9.84504 50.2844C9.59335 50.1394 9.37297 49.9458 9.1967 49.715C9.03353 49.5518 9.03353 49.3087 9.03353 48.9823C9.03953 48.7426 9.10124 48.5076 9.21377 48.2959C9.3263 48.0841 9.48656 47.9015 9.68187 47.7624C10.1537 47.4206 10.7272 47.2485 11.3092 47.274C11.942 47.2497 12.5669 47.4202 13.0997 47.7624C13.3034 47.9111 13.4685 48.1064 13.5813 48.332C13.6941 48.5576 13.7512 48.8069 13.748 49.0591H12.0418C12.0418 48.6528 11.7976 48.4107 11.3092 48.4107C11.1362 48.4277 10.9693 48.4835 10.8208 48.5739C10.7189 48.685 10.6609 48.8294 10.6576 48.9802C10.6576 49.1433 10.7387 49.2244 10.9018 49.3865C11.1371 49.4927 11.3826 49.5745 11.6345 49.6307C11.9586 49.7117 12.2039 49.7938 12.5292 49.8749C12.8221 49.9374 13.0905 50.0839 13.3016 50.2965C13.5126 50.5091 13.6572 50.7786 13.7176 51.072C13.778 51.3654 13.7516 51.67 13.6417 51.9487C13.5318 52.2274 13.3431 52.468 13.0986 52.6411C12.5963 52.983 11.9974 53.1543 11.3902 53.1295C10.9702 53.1436 10.5526 53.06 10.1703 52.8853C9.82825 52.7372 9.52285 52.5159 9.27558 52.237C9.06291 51.9878 8.94774 51.6699 8.95141 51.3423H10.5787C10.5758 51.4492 10.5961 51.5555 10.6383 51.6538C10.6805 51.7522 10.7435 51.8402 10.8229 51.9117C11.0244 52.0132 11.2458 52.0689 11.4713 52.0749C11.6719 52.07 11.868 52.0138 12.0407 51.9117C11.9989 51.6977 11.9989 51.4775 12.0407 51.2634L12.0418 51.2591Z" fill="#253E66"/>
<path d="M16.2723 45.9697V47.3529H17.167V48.4918H16.2723V51.0138C16.2723 51.258 16.2723 51.338 16.3533 51.4201C16.4751 51.4937 16.6188 51.5224 16.7596 51.5011H17.1659V52.7233C16.8495 52.8167 16.5229 52.8715 16.1934 52.8864C15.726 52.9145 15.2645 52.7699 14.8967 52.4801C14.6187 52.1357 14.4744 51.7025 14.4904 51.2602V48.5728H13.7502V47.3529H14.4828V45.9697H16.2723Z" fill="#253E66"/>
<path d="M20.748 52.8039C20.6669 52.7229 20.6669 52.5597 20.5848 52.3155C20.4315 52.509 20.2332 52.6621 20.0072 52.7613C19.7812 52.8606 19.5343 52.903 19.2881 52.8849C18.8089 52.8965 18.3439 52.7214 17.9914 52.3965C17.6584 52.106 17.4508 51.6978 17.4122 51.2576C17.4078 50.9929 17.4639 50.7307 17.5763 50.491C17.6886 50.2513 17.8543 50.0404 18.0606 49.8745C18.64 49.5014 19.3263 49.3297 20.0132 49.3861H20.5826V49.0619C20.5826 48.5735 20.3384 48.3293 19.9343 48.3293C19.5302 48.3293 19.3648 48.4924 19.3648 48.8987H17.6565C17.6533 48.6466 17.7104 48.3973 17.8232 48.1717C17.936 47.9461 18.1011 47.7508 18.3048 47.6021C18.8121 47.271 19.4075 47.1007 20.0132 47.1136C20.5967 47.0752 21.1745 47.2487 21.6405 47.6021C22.0287 47.9609 22.2613 48.4572 22.2888 48.9852V51.4262C22.2641 51.821 22.3486 52.2151 22.533 52.5651V52.6461H20.748V52.8039ZM19.6901 51.746C19.8907 51.7411 20.0868 51.685 20.2595 51.5829C20.4042 51.5189 20.5198 51.4033 20.5837 51.2587V50.364H20.0953C19.5258 50.364 19.2006 50.6082 19.2006 51.1776C19.2006 51.3408 19.2816 51.4219 19.3638 51.5839C19.4459 51.746 19.5269 51.7471 19.6879 51.7471L19.6901 51.746Z" fill="#253E66"/>
<path d="M24.5721 47.3525L24.6531 48.0008C24.835 47.7657 25.0699 47.5768 25.3386 47.4495C25.6073 47.3222 25.9022 47.2601 26.1994 47.2682C26.4376 47.2551 26.6759 47.2918 26.8992 47.3759C27.1224 47.46 27.3257 47.5896 27.4961 47.7566C27.7848 48.2191 27.9265 48.7583 27.9024 49.3029V52.8039H26.1994V49.3051C26.2072 49.1027 26.15 48.9032 26.0362 48.7356C25.9552 48.5725 25.7121 48.5724 25.4668 48.5724C25.32 48.5716 25.1756 48.6085 25.0473 48.6797C24.919 48.7508 24.8111 48.8538 24.7341 48.9787V52.8904H23.0258V47.3579L24.5721 47.3525Z" fill="#253E66"/>
<path d="M30.674 45.9697V47.3529H31.5687V48.4918H30.674V51.0138C30.674 51.258 30.674 51.338 30.7551 51.4201C30.8906 51.5356 31.0657 51.5941 31.2435 51.5833H31.6498V52.8032C31.3334 52.8967 31.0068 52.9515 30.6773 52.9664C30.2098 52.9944 29.7484 52.8499 29.3806 52.5601C29.1026 52.2157 28.9583 51.7825 28.9743 51.3401V48.6549H28.233V47.4339H28.9656V46.0508L30.674 45.9697Z" fill="#253E66"/>
<path d="M35.5549 48.9798C35.3918 48.7356 35.2308 48.4104 35.0665 48.1662C34.9654 47.9064 34.9102 47.6311 34.9033 47.3525C34.8922 47.0824 34.9371 46.8129 35.0351 46.5609C35.1331 46.309 35.2821 46.08 35.4728 45.8883C35.6762 45.6903 35.919 45.5373 36.1854 45.4392C36.4518 45.3411 36.7358 45.3001 37.0191 45.3189C37.2704 45.3053 37.522 45.3415 37.7593 45.4253C37.9966 45.5091 38.2151 45.6389 38.4022 45.8073C38.5813 45.9726 38.7243 46.1731 38.8223 46.3962C38.9203 46.6193 38.9711 46.8603 38.9717 47.104C38.9598 47.4563 38.8559 47.7994 38.6703 48.0991C38.4847 48.3988 38.2239 48.6447 37.9138 48.8124L37.5075 49.0566L38.6464 50.3532C38.8053 49.966 38.8882 49.5518 38.8906 49.1333H40.3548C40.3868 49.9679 40.1604 50.7921 39.7065 51.4932L40.8454 52.7899H38.9727L38.6486 52.3836C38.3746 52.5672 38.0724 52.7044 37.7539 52.7899C37.4343 52.8569 37.1076 52.8841 36.7814 52.871C36.1348 52.9081 35.4972 52.7053 34.9909 52.3015C34.7816 52.1027 34.6159 51.8626 34.5043 51.5965C34.3927 51.3303 34.3376 51.0438 34.3425 50.7552C34.3362 50.4397 34.421 50.129 34.5867 49.8605C34.8064 49.4656 35.1474 49.1518 35.5592 48.9658L35.5549 48.9798ZM36.776 51.5862C37.0662 51.5927 37.351 51.5072 37.5896 51.342L36.2929 49.7957H36.2119C36.0223 50.0268 35.9091 50.3111 35.8877 50.6093C35.882 50.8489 35.9695 51.0814 36.1319 51.2577C36.209 51.3567 36.3072 51.4371 36.4194 51.4932C36.5316 51.5493 36.6549 51.5796 36.7803 51.5818L36.776 51.5862ZM36.3697 47.2736C36.43 47.6006 36.5695 47.9077 36.776 48.1683L37.1001 47.9241C37.2633 47.8431 37.3443 47.6799 37.4243 47.6C37.4979 47.4781 37.5266 47.3344 37.5053 47.1937C37.5071 47.1184 37.4936 47.0436 37.4656 46.9737C37.4376 46.9038 37.3957 46.8403 37.3425 46.787C37.2893 46.7338 37.2258 46.6919 37.1559 46.6639C37.086 46.636 37.0112 46.6224 36.9359 46.6242C36.7629 46.6412 36.5959 46.697 36.4475 46.7874C36.4475 46.9505 36.3664 47.1115 36.3664 47.2758L36.3697 47.2736Z" fill="#253E66"/>
<path d="M49.7935 51.9095C49.4776 52.2802 49.0492 52.5374 48.5736 52.6422C48.0183 52.8029 47.4433 52.8851 46.8652 52.8864C45.9928 52.9025 45.1477 52.5821 44.5053 51.9917C44.1995 51.6658 43.9626 51.2815 43.8089 50.8619C43.6551 50.4422 43.5877 49.9959 43.6106 49.5496V48.9012C43.6016 48.2546 43.7405 47.6144 44.0168 47.0297C44.2377 46.4995 44.642 46.0665 45.1558 45.8097C45.6454 45.5146 46.2122 45.3731 46.7831 45.4035C47.5421 45.3681 48.2899 45.5972 48.8988 46.0518C49.4314 46.5339 49.7528 47.2062 49.7935 47.9233H48.0852C48.0697 47.584 47.9242 47.2636 47.6789 47.0286C47.4151 46.8523 47.101 46.7666 46.7842 46.7844C46.5717 46.767 46.3587 46.8115 46.1709 46.9125C45.9832 47.0136 45.8287 47.1669 45.7263 47.3539C45.4385 47.8465 45.2975 48.4111 45.32 48.9812V49.4696C45.2859 50.0408 45.4277 50.6088 45.7263 51.097C45.8808 51.2636 46.0704 51.3938 46.2814 51.4783C46.4924 51.5627 46.7194 51.5993 46.9463 51.5854C47.1354 51.6072 47.327 51.5896 47.5091 51.5339C47.6911 51.4781 47.8597 51.3852 48.0041 51.2612V50.119H46.7842V48.8991H49.7946L49.7935 51.9095Z" fill="#253E66"/>
<path d="M53.8619 52.2355C53.7032 52.475 53.4845 52.6687 53.2276 52.7973C52.9707 52.9258 52.6845 52.9847 52.3977 52.9681C52.138 52.995 51.8758 52.9571 51.6344 52.8577C51.393 52.7583 51.18 52.6006 51.0146 52.3987C50.8334 52.187 50.6967 51.941 50.6128 51.6753C50.5289 51.4096 50.4994 51.1297 50.5262 50.8524V47.2725H52.2345V50.8524C52.2345 51.3408 52.4787 51.585 52.8829 51.585C53.0424 51.5958 53.2019 51.5639 53.345 51.4925C53.488 51.4211 53.6094 51.3127 53.6965 51.1787V47.3535H55.4049V52.8914H53.7808L53.8619 52.2431V52.2355Z" fill="#253E66"/>
<path d="M59.3133 52.8041C59.2323 52.723 59.2323 52.5598 59.1502 52.3156C58.9969 52.5092 58.7986 52.6622 58.5726 52.7615C58.3466 52.8607 58.0997 52.9032 57.8535 52.8851C57.3743 52.8967 56.9093 52.7215 56.5568 52.3967C56.2238 52.1062 56.0162 51.698 55.9776 51.2578C55.9732 50.9931 56.0293 50.7308 56.1416 50.4911C56.254 50.2514 56.4197 50.0406 56.626 49.8746C57.2054 49.5016 57.8917 49.3299 58.5785 49.3862H59.148V49.0621C59.148 48.5736 58.9038 48.3294 58.4997 48.3294C58.0955 48.3294 57.9302 48.4926 57.9302 48.8989H56.2218C56.2186 48.6467 56.2758 48.3974 56.3886 48.1719C56.5014 47.9463 56.6665 47.751 56.8702 47.6022C57.3775 47.2711 57.9729 47.1009 58.5785 47.1138C59.1606 47.0883 59.7341 47.2605 60.2059 47.6022C60.5941 47.9611 60.8267 48.4574 60.8542 48.9853V51.4263C60.8295 51.8212 60.914 52.2152 61.0984 52.5653V52.6463H59.3133V52.8041ZM58.2554 51.7462C58.4561 51.7413 58.6521 51.6851 58.8249 51.583C58.9695 51.5191 59.0851 51.4035 59.1491 51.2588V50.3641H58.6607C58.0912 50.3641 57.766 50.6083 57.766 51.1778C57.766 51.341 57.847 51.422 57.9291 51.5841C58.0112 51.7462 58.0923 51.7473 58.2533 51.7473L58.2554 51.7462Z" fill="#253E66"/>
<path d="M64.9269 48.8995H64.3574C63.788 48.8995 63.4627 49.0626 63.2995 49.3879V52.8911H61.5912V47.3586H63.2185L63.2995 48.0912C63.396 47.8476 63.5644 47.6392 63.7824 47.4938C64.0004 47.3484 64.2575 47.273 64.5195 47.2775C64.6865 47.2645 64.8541 47.2923 65.0079 47.3586L64.9269 48.9049V48.8995Z" fill="#253E66"/>
<path d="M68.2637 52.8041C68.1826 52.723 68.1826 52.5598 68.1005 52.3156C67.9472 52.5092 67.7489 52.6622 67.5229 52.7615C67.2969 52.8607 67.05 52.9032 66.8038 52.8851C66.3246 52.8967 65.8596 52.7215 65.5071 52.3967C65.1741 52.1062 64.9665 51.698 64.9279 51.2578C64.9235 50.9931 64.9796 50.7308 65.092 50.4911C65.2043 50.2514 65.37 50.0406 65.5763 49.8746C66.1557 49.5016 66.842 49.3299 67.5289 49.3862H68.0983V49.0621C68.0983 48.5736 67.8541 48.3294 67.45 48.3294C67.0459 48.3294 66.8805 48.4926 66.8805 48.8989H65.1722C65.169 48.6467 65.2261 48.3974 65.3389 48.1719C65.4517 47.9463 65.6168 47.751 65.8205 47.6022C66.3278 47.2711 66.9232 47.1009 67.5289 47.1138C68.1109 47.0883 68.6844 47.2605 69.1562 47.6022C69.5444 47.9611 69.777 48.4574 69.8045 48.9853V51.4263C69.7798 51.8212 69.8643 52.2152 70.0488 52.5653V52.6463H68.2637V52.8041ZM67.2058 51.7462C67.4064 51.7413 67.6025 51.6851 67.7752 51.583C67.9199 51.5191 68.0355 51.4035 68.0994 51.2588V50.3641H67.611C67.0415 50.3641 66.7163 50.6083 66.7163 51.1778C66.7163 51.341 66.7973 51.422 66.8794 51.5841C66.8794 51.6651 67.0426 51.7473 67.2036 51.7473L67.2058 51.7462Z" fill="#253E66"/>
<path d="M72.0878 47.3525L72.1688 48.0008C72.3508 47.7657 72.5856 47.5768 72.8543 47.4495C73.123 47.3222 73.4179 47.2601 73.7151 47.2682C73.9533 47.2551 74.1916 47.2918 74.4149 47.3759C74.6381 47.46 74.8414 47.5896 75.0118 47.7566C75.3005 48.2191 75.4422 48.7583 75.4181 49.3029V52.8039H73.7151V49.3051C73.7388 49.2041 73.7364 49.0987 73.708 48.9989C73.6795 48.8991 73.6261 48.8082 73.5527 48.7348C73.4794 48.6614 73.3885 48.608 73.2887 48.5796C73.1889 48.5512 73.0835 48.5487 72.9825 48.5724C72.8358 48.5716 72.6913 48.6085 72.563 48.6797C72.4347 48.7508 72.3268 48.8538 72.2499 48.9787V52.8904H70.5415V47.3579L72.0878 47.3525Z" fill="#253E66"/>
<path d="M78.1897 45.9697V47.3529H79.0844V48.4918H78.1897V51.0138C78.1897 51.258 78.1897 51.338 78.2708 51.4201C78.3926 51.4937 78.5363 51.5224 78.6771 51.5011H79.0834V52.7233C78.767 52.8167 78.4404 52.8715 78.1108 52.8864C77.6434 52.9145 77.182 52.7699 76.8142 52.4801C76.5362 52.1357 76.3919 51.7025 76.4079 51.2602V48.5728H75.7487V47.3529H76.4814V45.9697H78.1897Z" fill="#253E66"/>
<path d="M82.257 52.9726C81.509 53.0064 80.778 52.743 80.2234 52.24C79.963 51.9862 79.7568 51.6824 79.6169 51.3468C79.4771 51.0113 79.4066 50.6509 79.4097 50.2874V50.1199C79.3809 49.6096 79.4931 49.1012 79.7339 48.6503C79.9429 48.2542 80.2512 47.9191 80.6286 47.6778C81.052 47.4471 81.5299 47.335 82.0117 47.3537C82.3457 47.3363 82.6794 47.3929 82.9889 47.5196C83.2985 47.6462 83.5762 47.8398 83.8022 48.0863C84.044 48.3626 84.2264 48.6858 84.3379 49.0356C84.4495 49.3855 84.4878 49.7546 84.4505 50.1199V50.7682H81.037C81.0701 51.0566 81.2162 51.3201 81.4433 51.5009C81.6819 51.6661 81.9668 51.7516 82.257 51.7451C82.5032 51.7631 82.75 51.7207 82.9761 51.6214C83.2021 51.5222 83.4004 51.3691 83.5537 51.1756L84.3673 52.0703C84.1482 52.3977 83.8368 52.6527 83.4726 52.8029C83.0663 52.8029 82.6589 52.9661 82.2527 52.9661L82.257 52.9726ZM82.0128 48.579C81.5244 48.579 81.1991 48.9032 81.1181 49.5515H82.8264V49.3884C82.8322 49.1487 82.7446 48.9163 82.5822 48.74C82.4218 48.6115 82.2171 48.5517 82.0128 48.5736V48.579Z" fill="#253E66"/>
<path d="M87.7084 52.9726C86.9604 53.0064 86.2294 52.743 85.6748 52.24C85.4145 51.9862 85.2082 51.6824 85.0684 51.3468C84.9285 51.0113 84.8581 50.6509 84.8611 50.2874V50.1199C84.8323 49.6096 84.9445 49.1012 85.1853 48.6503C85.3943 48.2541 85.7026 47.919 86.08 47.6778C86.5034 47.4471 86.9813 47.335 87.4631 47.3537C87.7971 47.3363 88.1308 47.3929 88.4404 47.5196C88.7499 47.6462 89.0276 47.8398 89.2536 48.0863C89.4955 48.3626 89.6778 48.6858 89.7894 49.0356C89.9009 49.3855 89.9393 49.7546 89.902 50.1199V50.7682H86.4852C86.5183 51.0566 86.6644 51.3201 86.8915 51.5009C87.1302 51.6661 87.415 51.7516 87.7052 51.7451C87.9514 51.7631 88.1983 51.7207 88.4243 51.6214C88.6503 51.5222 88.8486 51.3691 89.0019 51.1756L89.8155 52.0703C89.5964 52.3977 89.285 52.6527 88.9208 52.8029C88.5145 52.8029 88.1072 52.9661 87.7009 52.9661L87.7084 52.9726ZM87.4642 48.579C86.9758 48.579 86.6506 48.9032 86.5695 49.5515H88.2779V49.3884C88.2837 49.1487 88.1961 48.9163 88.0337 48.74C87.8733 48.6115 87.6686 48.5517 87.4642 48.5736V48.579Z" fill="#253E66"/>
<path d="M90.3126 50.0382C90.2526 49.314 90.4547 48.5923 90.8821 48.0046C91.064 47.7695 91.2989 47.5806 91.5676 47.4533C91.8362 47.326 92.1312 47.2639 92.4284 47.272C92.6624 47.2624 92.8954 47.3091 93.1077 47.4082C93.3199 47.5073 93.5054 47.6559 93.6483 47.8414V45.0752H95.3567V52.8855H93.8104L93.7294 52.3161C93.5869 52.5263 93.3929 52.6963 93.1658 52.8098C92.9387 52.9234 92.6863 52.9766 92.4327 52.9644C92.1355 52.9725 91.8406 52.9104 91.5719 52.7831C91.3032 52.6558 91.0683 52.4669 90.8864 52.2318C90.47 51.5777 90.2708 50.8089 90.3169 50.035L90.3126 50.0382ZM92.021 50.1193C92.021 51.0918 92.2652 51.5834 92.8346 51.5834C93.0042 51.5969 93.1738 51.5571 93.3197 51.4695C93.4655 51.3819 93.5804 51.251 93.6483 51.095V48.9804C93.5804 48.8244 93.4655 48.6934 93.3197 48.6059C93.1738 48.5183 93.0042 48.4785 92.8346 48.4919C92.2652 48.4919 92.021 48.8982 91.9399 49.7886V50.1128L92.021 50.1193Z" fill="#253E66"/>
<path d="M102.435 50.8511C102.447 50.7432 102.431 50.6342 102.388 50.5345C102.345 50.4348 102.277 50.3477 102.191 50.2817C101.904 50.0533 101.573 49.887 101.219 49.7933C100.827 49.6604 100.446 49.4971 100.08 49.3048C99.6693 49.1611 99.3106 48.8989 99.049 48.5514C98.7874 48.2038 98.6347 47.7865 98.6103 47.3523C98.5921 46.9727 98.7067 46.5986 98.9344 46.2944C99.184 45.9643 99.5208 45.7106 99.9069 45.5618C100.375 45.3884 100.872 45.3055 101.371 45.3176C101.87 45.3125 102.365 45.3952 102.835 45.5618C103.227 45.7405 103.563 46.0216 103.808 46.3754C104.047 46.7352 104.161 47.1641 104.132 47.5954H102.341C102.33 47.4028 102.265 47.2172 102.154 47.0594C102.043 46.9015 101.891 46.7776 101.713 46.7016C101.536 46.6256 101.341 46.6004 101.15 46.6288C100.96 46.6573 100.78 46.7383 100.633 46.8628C100.554 46.9344 100.491 47.0223 100.448 47.1207C100.406 47.219 100.386 47.3253 100.389 47.4322C100.395 47.5349 100.429 47.634 100.486 47.7197C100.543 47.8054 100.621 47.8747 100.713 47.9206C101.042 48.1301 101.398 48.2944 101.771 48.4091C102.205 48.5329 102.617 48.7251 102.991 48.9785C103.348 49.1492 103.651 49.4136 103.869 49.7434C104.087 50.0732 104.212 50.4561 104.229 50.8511C104.237 51.1483 104.175 51.4433 104.048 51.7119C103.921 51.9806 103.732 52.2155 103.497 52.3974C102.909 52.8248 102.187 53.0269 101.463 52.9669C100.903 52.9855 100.346 52.8745 99.8356 52.6427C99.3907 52.4385 99.0005 52.1319 98.6967 51.748C98.4421 51.3625 98.3013 50.9131 98.2904 50.4513H100.081C100.065 50.6152 100.086 50.7804 100.142 50.9351C100.198 51.0899 100.288 51.2302 100.405 51.346C100.698 51.5213 101.036 51.6063 101.378 51.5902C101.631 51.5939 101.882 51.538 102.11 51.4271C102.213 51.3725 102.297 51.29 102.355 51.1892C102.412 51.0884 102.44 50.9735 102.434 50.8576L102.435 50.8511Z" fill="#253E66"/>
<path d="M107.968 52.8041C107.887 52.723 107.887 52.5598 107.805 52.3156C107.652 52.5092 107.453 52.6622 107.227 52.7615C107.001 52.8607 106.754 52.9032 106.508 52.8851C106.029 52.8967 105.564 52.7215 105.211 52.3967C104.882 52.1045 104.678 51.6966 104.642 51.2578C104.638 50.9931 104.694 50.7308 104.806 50.4911C104.918 50.2514 105.084 50.0406 105.29 49.8746C105.87 49.5016 106.556 49.3299 107.243 49.3862H107.812V49.0621C107.812 48.5736 107.568 48.3294 107.164 48.3294C106.76 48.3294 106.595 48.4926 106.595 48.8989H104.886C104.883 48.6467 104.94 48.3974 105.053 48.1719C105.166 47.9463 105.331 47.751 105.535 47.6022C106.042 47.2711 106.637 47.1009 107.243 47.1138C107.825 47.0883 108.398 47.2605 108.87 47.6022C109.258 47.9611 109.491 48.4574 109.519 48.9853V51.4263C109.494 51.8212 109.578 52.2152 109.763 52.5653V52.6463H107.972L107.968 52.8041ZM106.91 51.7462C107.111 51.7413 107.307 51.6851 107.48 51.583C107.624 51.5191 107.74 51.4035 107.804 51.2588V50.3641H107.315C106.746 50.3641 106.421 50.6083 106.421 51.1778C106.421 51.341 106.502 51.422 106.584 51.5841C106.666 51.7462 106.747 51.7473 106.908 51.7473L106.91 51.7462Z" fill="#253E66"/>
<path d="M112.362 50.7713L113.256 47.2725H115.047L113.256 52.805H111.466L109.676 47.2725H111.467L112.362 50.7713Z" fill="#253E66"/>
<path d="M115.291 45.9696C115.288 45.8626 115.308 45.7563 115.35 45.658C115.393 45.5597 115.456 45.4717 115.535 45.4001C115.715 45.2441 115.945 45.1582 116.183 45.1582C116.422 45.1582 116.652 45.2441 116.832 45.4001C116.909 45.4736 116.97 45.5619 117.012 45.6598C117.054 45.7577 117.076 45.8631 117.076 45.9696C117.076 46.076 117.054 46.1814 117.012 46.2793C116.97 46.3772 116.909 46.4656 116.832 46.539C116.652 46.695 116.422 46.7809 116.183 46.7809C115.945 46.7809 115.715 46.695 115.535 46.539C115.387 46.3852 115.3 46.1827 115.291 45.9696ZM117.162 52.8041H115.454V47.2716H117.162V52.8041Z" fill="#253E66"/>
<path d="M119.603 47.3525L119.685 48.0008C119.866 47.7657 120.101 47.5768 120.37 47.4495C120.639 47.3222 120.934 47.2601 121.231 47.2682C121.469 47.2551 121.707 47.2918 121.931 47.3759C122.154 47.46 122.357 47.5896 122.527 47.7566C122.816 48.2191 122.958 48.7583 122.934 49.3029V52.8039H121.225V49.3051C121.233 49.1027 121.176 48.9031 121.062 48.7356C120.981 48.5725 120.738 48.5724 120.493 48.5724C120.346 48.5716 120.202 48.6085 120.073 48.6797C119.945 48.7508 119.837 48.8538 119.76 48.9787V52.8904H118.057V47.3579L119.603 47.3525Z" fill="#253E66"/>
<path d="M123.509 50.0374C123.497 49.5382 123.579 49.0414 123.753 48.5732C123.905 48.1654 124.192 47.8221 124.567 47.6007C124.926 47.3611 125.355 47.2472 125.786 47.2765C126.033 47.2503 126.283 47.2891 126.51 47.3889C126.738 47.4888 126.935 47.6464 127.083 47.846L127.164 47.3576H128.71V52.6415C128.74 53.0728 128.626 53.5017 128.386 53.8615C128.141 54.2152 127.805 54.4963 127.414 54.6751C126.951 54.8771 126.454 54.9872 125.95 54.9993C125.556 55.0053 125.167 54.9218 124.811 54.7551C124.474 54.6337 124.169 54.4392 123.916 54.1856L124.564 53.2131C124.707 53.3987 124.893 53.5473 125.105 53.6464C125.317 53.7455 125.55 53.7922 125.784 53.7826C125.938 53.8 126.094 53.7825 126.24 53.7314C126.386 53.6803 126.519 53.5969 126.628 53.4875C126.738 53.3781 126.821 53.2454 126.872 53.0993C126.923 52.9532 126.941 52.7975 126.923 52.6437V52.3995C126.768 52.5712 126.581 52.71 126.371 52.8078C126.161 52.9056 125.934 52.9604 125.703 52.9689C125.394 52.9772 125.088 52.9155 124.806 52.7887C124.524 52.6618 124.275 52.473 124.076 52.2363C123.66 51.5822 123.46 50.8135 123.506 50.0395L123.509 50.0374ZM125.217 50.1184C125.191 50.4875 125.276 50.8561 125.461 51.1763C125.538 51.3012 125.646 51.4042 125.774 51.4753C125.903 51.5465 126.047 51.5834 126.194 51.5826C126.6 51.5826 126.842 51.5015 127.008 51.1763V48.8984C126.92 48.7644 126.799 48.6561 126.656 48.5847C126.513 48.5132 126.353 48.4813 126.194 48.4922C126.047 48.4913 125.903 48.5282 125.774 48.5994C125.646 48.6705 125.538 48.7735 125.461 48.8984C125.278 49.2779 125.194 49.6976 125.217 50.1184Z" fill="#253E66"/>
<path d="M132.377 51.2591C132.377 51.0959 132.296 51.0149 132.133 50.9349C131.848 50.8098 131.547 50.7275 131.238 50.6907C130.864 50.6195 130.506 50.4819 130.18 50.2844C129.928 50.1394 129.708 49.9458 129.532 49.715C129.379 49.5008 129.294 49.2455 129.288 48.9823C129.294 48.7426 129.355 48.5076 129.468 48.2959C129.58 48.0841 129.741 47.9015 129.936 47.7624C130.408 47.4206 130.981 47.2485 131.563 47.274C132.196 47.2498 132.821 47.4202 133.354 47.7624C133.557 47.9111 133.722 48.1064 133.835 48.332C133.948 48.5576 134.005 48.8069 134.002 49.0591H132.294C132.294 48.6528 132.049 48.4107 131.561 48.4107C131.388 48.4277 131.221 48.4835 131.073 48.5739C130.909 48.6549 130.909 48.8181 130.909 48.9802C130.909 49.1423 130.99 49.2244 131.154 49.3865C131.389 49.4927 131.634 49.5745 131.886 49.6307C132.21 49.7117 132.456 49.7938 132.781 49.8749C133.074 49.9374 133.342 50.0839 133.553 50.2965C133.764 50.5091 133.909 50.7786 133.969 51.072C134.03 51.3654 134.003 51.67 133.894 51.9487C133.784 52.2274 133.595 52.468 133.35 52.6411C132.848 52.983 132.249 53.1543 131.642 53.1295C131.222 53.1436 130.804 53.06 130.422 52.8853C130.08 52.7372 129.775 52.5159 129.527 52.237C129.315 51.9878 129.2 51.6699 129.203 51.3423H130.831C130.828 51.4492 130.848 51.5555 130.89 51.6538C130.932 51.7522 130.995 51.8402 131.075 51.9117C131.276 52.0132 131.498 52.0689 131.723 52.0749C131.924 52.07 132.12 52.0138 132.293 51.9117C132.293 51.5876 132.374 51.4233 132.374 51.2634L132.377 51.2591Z" fill="#253E66"/>
<path d="M136.77 50.0382C136.743 49.5297 136.855 49.0233 137.095 48.574C137.304 48.1778 137.612 47.8427 137.989 47.6015C138.413 47.3708 138.891 47.2588 139.372 47.2774C139.731 47.2604 140.088 47.3166 140.424 47.4426C140.76 47.5686 141.066 47.7616 141.325 48.01C141.581 48.2967 141.777 48.6313 141.903 48.9945C142.029 49.3577 142.081 49.7422 142.058 50.1257V50.2068C142.082 50.5779 142.029 50.95 141.903 51.2999C141.777 51.6497 141.58 51.9699 141.325 52.2404C141.066 52.4888 140.76 52.6818 140.424 52.8078C140.088 52.9338 139.731 52.99 139.372 52.973C139.026 52.9901 138.681 52.9337 138.358 52.8074C138.035 52.6811 137.743 52.4879 137.501 52.2404C137.259 51.9926 137.07 51.6987 136.945 51.3762C136.819 51.0538 136.76 50.7093 136.77 50.3635V50.0393V50.0382ZM138.479 50.1192C138.454 50.5141 138.539 50.9081 138.723 51.2582C138.805 51.3724 138.917 51.4626 139.045 51.5196C139.174 51.5765 139.316 51.5982 139.456 51.5823C140.025 51.5823 140.35 51.0939 140.35 50.1992V50.0382C140.35 49.0621 140.026 48.574 139.378 48.574C138.808 48.574 138.483 48.9803 138.483 49.8707V50.1149L138.479 50.1192Z" fill="#253E66"/>
<path d="M144.257 47.3525L144.338 48.0008C144.52 47.7657 144.754 47.5768 145.023 47.4495C145.292 47.3222 145.587 47.2601 145.884 47.2682C146.122 47.2551 146.36 47.2918 146.584 47.3759C146.807 47.46 147.01 47.5896 147.181 47.7566C147.469 48.2191 147.611 48.7583 147.587 49.3029V52.8039H145.878V49.3051C145.902 49.2041 145.9 49.0987 145.871 48.9989C145.843 48.8991 145.79 48.8082 145.716 48.7348C145.643 48.6614 145.552 48.608 145.452 48.5796C145.352 48.5512 145.247 48.5487 145.146 48.5724C144.999 48.5716 144.855 48.6085 144.726 48.6797C144.598 48.7508 144.49 48.8538 144.413 48.9787V52.8904H142.71V47.3579L144.257 47.3525Z" fill="#253E66"/>
<path d="M154.995 51.4213H152.554L152.148 52.8044H150.276L152.962 45.4004H154.67L157.436 52.8044H155.484L154.995 51.4213ZM153.043 50.1246H154.67L153.856 47.6026L153.043 50.1246Z" fill="#253E66"/>
<path d="M163.295 50.1192L164.109 45.4814H165.899L164.351 52.8855H162.481L161.509 48.6551L160.536 52.8855H158.665L157.111 45.4814H158.901L159.715 50.1192L160.773 45.4814H162.319L163.292 50.1192H163.295Z" fill="#253E66"/>
<path d="M170.211 50.8511C170.222 50.7432 170.206 50.6342 170.163 50.5345C170.12 50.4348 170.053 50.3477 169.966 50.2817C169.68 50.0533 169.348 49.887 168.994 49.7933C168.602 49.6604 168.221 49.4971 167.855 49.3048C167.446 49.1602 167.088 48.8977 166.827 48.5502C166.567 48.2027 166.415 47.7859 166.391 47.3523C166.373 46.9727 166.487 46.5986 166.715 46.2944C166.965 45.9643 167.301 45.7106 167.688 45.5618C168.156 45.3884 168.653 45.3055 169.152 45.3176C169.65 45.3126 170.146 45.3952 170.616 45.5618C171.007 45.7406 171.343 46.0217 171.588 46.3754C171.828 46.7353 171.942 47.1641 171.913 47.5954H170.122C170.111 47.4028 170.046 47.2172 169.935 47.0594C169.824 46.9015 169.671 46.7776 169.494 46.7016C169.317 46.6256 169.122 46.6004 168.931 46.6288C168.74 46.6573 168.561 46.7383 168.414 46.8628C168.334 46.9344 168.271 47.0224 168.229 47.1207C168.187 47.219 168.167 47.3253 168.169 47.4322C168.176 47.5349 168.209 47.634 168.266 47.7197C168.323 47.8054 168.402 47.8747 168.494 47.9206C168.823 48.1301 169.179 48.2944 169.552 48.4091C169.986 48.5329 170.398 48.7251 170.771 48.9785C171.127 49.15 171.43 49.4147 171.647 49.7444C171.864 50.0742 171.987 50.4567 172.004 50.8511C172.013 51.1483 171.95 51.4433 171.823 51.7119C171.696 51.9806 171.507 52.2155 171.272 52.3974C170.684 52.8248 169.962 53.0269 169.238 52.9669C168.678 52.9855 168.121 52.8745 167.611 52.6427C167.166 52.4385 166.776 52.1319 166.472 51.748C166.217 51.3625 166.077 50.9131 166.066 50.4513H167.855C167.839 50.6152 167.86 50.7804 167.916 50.9352C167.973 51.0899 168.062 51.2302 168.179 51.346C168.472 51.5214 168.811 51.6063 169.152 51.5902C169.405 51.5939 169.656 51.538 169.884 51.4271C169.982 51.3668 170.062 51.2831 170.119 51.1836C170.176 51.0841 170.206 50.9721 170.209 50.8576L170.211 50.8511Z" fill="#253E66"/>
<path d="M0.406311 41.5752H172.243" stroke="#253E66"/>
</svg>
